<svg xmlns="http://www.w3.org/2000/svg" viewBox="0 0 77.69 23.06"><defs><style>.cls-1{fill:#fff;}</style></defs><title>Asset 1</title><g id="Layer_2" data-name="Layer 2"><g id="Layer_1-2" data-name="Layer 1"><path class="cls-1" d="M58.19,16.73v4.39a2,2,0,0,0,2,1.94h4.48a2,2,0,0,0,2-1.94V11.66a2,2,0,0,0-2-2H61.77a.63.63,0,0,1-.62-.63V3.59A.62.62,0,0,1,61.77,3H63a.62.62,0,0,1,.62.62V6.16a.63.63,0,0,0,.63.63H66a.63.63,0,0,0,.62-.63V1.94a1.91,1.91,0,0,0-2-1.94H60.16a1.88,1.88,0,0,0-2,2v8.73a2,2,0,0,0,2,1.94H63a.62.62,0,0,1,.62.62v6.2a.62.62,0,0,1-.62.62H61.77a.62.62,0,0,1-.62-.62V16.73a.62.62,0,0,0-.62-.62H58.81a.62.62,0,0,0-.62.62m-5,6.33h1.72a.62.62,0,0,0,.62-.62V.62A.62.62,0,0,0,54.93,0H53.21a.63.63,0,0,0-.63.62V22.44a.63.63,0,0,0,.63.62m-7.05-.62V12.91a.62.62,0,0,1,.62-.62h1.89a.63.63,0,0,0,.62-.63V9.94a.62.62,0,0,0-.62-.62H46.78a.62.62,0,0,1-.62-.62V3.59A.62.62,0,0,1,46.78,3H50a.63.63,0,0,0,.62-.63V.62A.62.62,0,0,0,50,0H43.82a.62.62,0,0,0-.62.62V22.44a.62.62,0,0,0,.62.62h1.72a.62.62,0,0,0,.62-.62m-10.25.62h1.72a.63.63,0,0,0,.63-.62v-7L41.64.76a.61.61,0,0,0-.12-.52A.59.59,0,0,0,41,0H39.27a.61.61,0,0,0-.61.51L36.77,10.87,34.89.51A.61.61,0,0,0,34.28,0H32.52A.59.59,0,0,0,32,.24a.58.58,0,0,0-.12.52l3.38,14.72v7a.62.62,0,0,0,.62.62m-9-5.79H32a.63.63,0,0,0,.63-.63V14.92A.63.63,0,0,0,32,14.3H29.85a.63.63,0,0,1-.63-.62V.62A.62.62,0,0,0,28.6,0H26.88a.62.62,0,0,0-.62.62v16a.63.63,0,0,0,.62.63m-5.24,5.79H32a.63.63,0,0,0,.63-.62V20.72a.63.63,0,0,0-.63-.63H24.6a.62.62,0,0,1-.62-.62V.62A.62.62,0,0,0,23.36,0H21.64A.62.62,0,0,0,21,.62V22.44a.62.62,0,0,0,.62.62m-3.55-3H14.65a.62.62,0,0,1-.62-.62V12.91a.62.62,0,0,1,.62-.62h1.89a.63.63,0,0,0,.62-.63V9.94a.62.62,0,0,0-.62-.62H14.65A.62.62,0,0,1,14,8.7V3.59A.62.62,0,0,1,14.65,3h3.21a.63.63,0,0,0,.62-.63V.62A.62.62,0,0,0,17.86,0H11.69a.62.62,0,0,0-.62.62V22.44a.62.62,0,0,0,.62.62h6.4a.62.62,0,0,0,.62-.62V20.72a.63.63,0,0,0-.62-.63M0,16.73v4.39a2,2,0,0,0,2,1.94H6.46a2,2,0,0,0,2-1.94V.62A.62.62,0,0,0,7.81,0H6.09a.62.62,0,0,0-.62.62V19.47a.62.62,0,0,1-.62.62H3.59A.63.63,0,0,1,3,19.47V16.73a.62.62,0,0,0-.62-.62H.62a.62.62,0,0,0-.62.62m69.88,6.33H71.6a.62.62,0,0,0,.62-.62V14.23a.63.63,0,0,1,.62-.63H74.1a.63.63,0,0,1,.62.63v8.21a.62.62,0,0,0,.62.62h1.72a.63.63,0,0,0,.63-.62V.62A.63.63,0,0,0,77.06,0H75.34a.62.62,0,0,0-.62.62V10a.62.62,0,0,1-.62.62H72.84a.62.62,0,0,1-.62-.62V.62A.62.62,0,0,0,71.6,0H69.88a.63.63,0,0,0-.63.62V22.44a.63.63,0,0,0,.63.62"/></g></g></svg>