<svg xmlns="http://www.w3.org/2000/svg" viewBox="0 0 174.25 8.77"><defs><style>.cls-1{fill:#fff;}</style></defs><title>Asset 1</title><g id="Layer_2" data-name="Layer 2"><g id="Layer_1-2" data-name="Layer 1"><path class="cls-1" d="M0,1.55V.12H6.94V1.55H4.34v7.1H2.58V1.55Z"/><path class="cls-1" d="M12.82,8.65,11.23,5.53H9.83V8.65H8.07V.12h3.17a4.29,4.29,0,0,1,1.69.3A2.44,2.44,0,0,1,14,1.29a2.56,2.56,0,0,1,.37,1.41A2.6,2.6,0,0,1,14,4.17a2.66,2.66,0,0,1-1.13.91l1.85,3.49v.08Zm-3-7.1V4.11h1.41a1.47,1.47,0,0,0,1-.34,1.23,1.23,0,0,0,.36-.93,1.26,1.26,0,0,0-.35-.95,1.42,1.42,0,0,0-1-.34Z"/><path class="cls-1" d="M22.85,4.58a5.16,5.16,0,0,1-.46,2.23,3.36,3.36,0,0,1-1.28,1.45,3.76,3.76,0,0,1-3.78,0A3.32,3.32,0,0,1,16,6.81a5,5,0,0,1-.47-2.23V4.2A5.19,5.19,0,0,1,16,2,3.44,3.44,0,0,1,17.32.52a3.76,3.76,0,0,1,3.78,0A3.44,3.44,0,0,1,22.39,2a5.19,5.19,0,0,1,.46,2.23Zm-1.79-.39a3.6,3.6,0,0,0-.48-2,1.7,1.7,0,0,0-2.74,0,3.59,3.59,0,0,0-.49,2v.42a3.66,3.66,0,0,0,.49,2,1.56,1.56,0,0,0,1.38.7,1.54,1.54,0,0,0,1.36-.7,3.51,3.51,0,0,0,.48-2Z"/><path class="cls-1" d="M26,5.64v3H24.22V.12h3.34a3.81,3.81,0,0,1,1.71.36,2.7,2.7,0,0,1,1.11,1,2.74,2.74,0,0,1,.38,1.46,2.59,2.59,0,0,1-.38,1.43,2.43,2.43,0,0,1-1.1.94,4.12,4.12,0,0,1-1.72.33Zm0-4.09V4.22h1.57a1.46,1.46,0,0,0,1.07-.34A1.22,1.22,0,0,0,29,3a1.67,1.67,0,0,0-.15-.71,1.13,1.13,0,0,0-.47-.5,1.51,1.51,0,0,0-.8-.19Z"/><path class="cls-1" d="M34,.12V8.65H32.19V.12Z"/><path class="cls-1" d="M42.41,5.81a3.25,3.25,0,0,1-.48,1.54A2.93,2.93,0,0,1,40.75,8.4,3.93,3.93,0,0,1,39,8.77a3.41,3.41,0,0,1-1.88-.5,3.16,3.16,0,0,1-1.22-1.42,5.23,5.23,0,0,1-.43-2.18V4.11a5.11,5.11,0,0,1,.44-2.18A3.28,3.28,0,0,1,37.12.5,3.51,3.51,0,0,1,39,0a3.93,3.93,0,0,1,1.78.38,2.81,2.81,0,0,1,1.15,1.06A3.63,3.63,0,0,1,42.41,3H40.65a1.83,1.83,0,0,0-.44-1.19A1.64,1.64,0,0,0,39,1.44c-1.14,0-1.73.84-1.76,2.53v.7a3.92,3.92,0,0,0,.41,2A1.47,1.47,0,0,0,39,7.33,1.73,1.73,0,0,0,40.19,7a1.77,1.77,0,0,0,.46-1.15Z"/><path class="cls-1" d="M43,8.65,46.14.12h1.63L51,8.65H49.09L48.5,6.9H45.41l-.58,1.75Zm2.92-3.18H48L47,2.27Z"/><path class="cls-1" d="M57.36,7.24V8.65H51.87V.12h1.76V7.24Z"/><path class="cls-1" d="M63.45.12V8.65H61.69V.12Z"/><path class="cls-1" d="M69.34,5.7a4.21,4.21,0,0,0-1.41-.65,8.13,8.13,0,0,1-1.46-.61,3.16,3.16,0,0,1-1-.84,2,2,0,0,1-.37-1.21,2.06,2.06,0,0,1,.4-1.24A2.56,2.56,0,0,1,66.63.3,4.44,4.44,0,0,1,68.27,0a3.87,3.87,0,0,1,1.64.33A2.65,2.65,0,0,1,71,1.28a2.43,2.43,0,0,1,.39,1.36H69.64a1.16,1.16,0,0,0-.36-.9,1.49,1.49,0,0,0-1-.33,1.92,1.92,0,0,0-.76.13,1,1,0,0,0-.46.35.9.9,0,0,0-.15.51.81.81,0,0,0,.41.68,4.52,4.52,0,0,0,1.28.55,5.51,5.51,0,0,1,2.15,1.1A2.19,2.19,0,0,1,71.4,6.4,2.18,2.18,0,0,1,71,7.68a2.38,2.38,0,0,1-1.08.81,4.28,4.28,0,0,1-1.63.28,4.43,4.43,0,0,1-1.67-.31,3.15,3.15,0,0,1-1.28-.91A2.43,2.43,0,0,1,64.85,6h1.77c0,1,.56,1.42,1.69,1.42a1.58,1.58,0,0,0,1-.27.86.86,0,0,0,.34-.69A1,1,0,0,0,69.34,5.7Z"/><path class="cls-1" d="M78.19,7.24V8.65H72.7V.12h1.77V7.24Z"/><path class="cls-1" d="M78.71,8.65,81.89.12h1.63l3.19,8.53H84.84L84.25,6.9H81.16l-.58,1.75Zm2.93-3.18h2.14l-1.07-3.2Z"/><path class="cls-1" d="M94.56.12V8.65H92.8L89.38,3V8.65H87.62V.12h1.76L92.8,5.75V.12Z"/><path class="cls-1" d="M96.22,8.65V.12h2.63a3.9,3.9,0,0,1,2,.52,3.58,3.58,0,0,1,1.38,1.43,4.46,4.46,0,0,1,.49,2.13v.38a4.41,4.41,0,0,1-.49,2.13,3.52,3.52,0,0,1-1.38,1.43,4.08,4.08,0,0,1-2.05.51ZM98,1.55V7.24h.84a1.93,1.93,0,0,0,1.58-.67A3.11,3.11,0,0,0,101,4.63V4.19c0-1.74-.69-2.62-2.06-2.64Z"/><path class="cls-1" d="M109.09.12V8.65h-1.75V.12Z"/><path class="cls-1" d="M117.79.12V8.65H116L112.61,3V8.65h-1.76V.12h1.76L116,5.75V.12Z"/><path class="cls-1" d="M123.72.12,125.49,4,127.26.12h1.93l-2.81,5.44V8.65H124.6V5.56L121.79.12Z"/><path class="cls-1" d="M130.09,8.65V.12h5.7V1.55h-3.94v2h3.37V5h-3.37V7.24h4V8.65Z"/><path class="cls-1" d="M141.7,8.65l-1.59-3.12h-1.4V8.65H137V.12h3.17a4.29,4.29,0,0,1,1.69.3,2.44,2.44,0,0,1,1.09.87,2.56,2.56,0,0,1,.37,1.41,2.6,2.6,0,0,1-.39,1.47,2.66,2.66,0,0,1-1.13.91l1.85,3.49v.08Zm-3-7.1V4.11h1.41a1.47,1.47,0,0,0,1-.34,1.23,1.23,0,0,0,.36-.93,1.26,1.26,0,0,0-.35-.95,1.42,1.42,0,0,0-1-.34Z"/><path class="cls-1" d="M144.71,8.65V.12h5.71V1.55h-3.94v2h3.36V5h-3.36V7.24h4V8.65Z"/><path class="cls-1" d="M158.63.12l-3,8.53h-1.82l-3-8.53h1.94l1.93,6.41L156.67.12Z"/><path class="cls-1" d="M158.4,8.65,161.58.12h1.63l3.19,8.53h-1.88l-.58-1.75h-3.09l-.59,1.75Zm2.92-3.18h2.14l-1.06-3.2Z"/><path class="cls-1" d="M174.25.12V8.65h-1.76L169.07,3V8.65H167.3V.12h1.77l3.42,5.63V.12Z"/></g></g></svg>