<svg xmlns="http://www.w3.org/2000/svg" xmlns:xlink="http://www.w3.org/1999/xlink" viewBox="0 0 388.2 97.64"><defs><style>.cls-1{fill:none;}.cls-2{clip-path:url(#clip-path);}.cls-3{fill:#fff;}</style><clipPath id="clip-path" transform="translate(0 0)"><rect class="cls-1" width="388.2" height="97.64"/></clipPath></defs><title>Asset 1</title><g id="Layer_2" data-name="Layer 2"><g id="Layer_1-2" data-name="Layer 1"><g class="cls-2"><g class="cls-2"><path class="cls-3" d="M260,59.07v0c-.05-.19-.11-.29-.2-.28h0l0,0v0a.39.39,0,0,1,0-.13.17.17,0,0,1,.12-.19c.1-.06.15-.13.14-.22v-.05c0-.14-.11-.21-.19-.2h0l-.09,0-.12.09-.31.11-.1-.15-.06-.13c-.12-.46-.37-.68-.74-.67h-.16c0-.15-.09-.23-.15-.22h-.15l-.05,0h0s-.07,0-.1.1l-.27-.06h-.24l-.06,0-.07,0h0a.13.13,0,0,1-.12,0,.22.22,0,0,1-.1,0l-.1,0a.17.17,0,0,0-.1,0,.12.12,0,0,0-.09,0l-.15-.06h-.15a.46.46,0,0,1-.3-.12h-.15l-.06,0a.12.12,0,0,1-.08,0,.29.29,0,0,0-.14-.08h-.15l-.09,0-.09,0h-.05a.18.18,0,0,1-.12,0h0l0,0h0l0,0a.3.3,0,0,0-.2-.08.38.38,0,0,0-.1,0,.33.33,0,0,1-.19-.06.35.35,0,0,0-.22-.09l-.19,0-.19,0a.69.69,0,0,1-.2,0h-.17l-.09,0-.07,0a.3.3,0,0,0-.16,0,.11.11,0,0,1-.1.05h-.1l-.77,0h-.16a.41.41,0,0,0-.16,0l-.06,0a.4.4,0,0,1-.23-.07.41.41,0,0,0-.2-.06.21.21,0,0,0-.12.05s0,0-.08,0a.09.09,0,0,1-.07,0l0,0h0a.16.16,0,0,1-.11.05h0l-.07,0-.08,0h-.1l-.29.08-.3,0h-.07l-.19,0h-.07a4.42,4.42,0,0,0-.52,0,7.58,7.58,0,0,0-1.46.2c-.16,0-.38.11-.63.2l-.19,0a1.12,1.12,0,0,1-.35.06.93.93,0,0,1-.33,0h-.23l-.22,0-.19,0-.2,0h-.06l-.06,0a.19.19,0,0,1-.15.07l-.31,0a.73.73,0,0,0-.22,0,1.9,1.9,0,0,1-.34.08l-.34,0v-.05l0,0,0,0h-.17a.29.29,0,0,0-.15.12.4.4,0,0,1-.34.14h-.21l-.16,0-.16.07-.18.08-.14,0a.41.41,0,0,1-.19,0,.65.65,0,0,0-.31-.09h-.06a1.09,1.09,0,0,0-.34.47c-.05.08-.15.26-.33.54s-.16.25-.22.34-.15.26-.21.38a3.39,3.39,0,0,0-.42,1.61c0,.13,0,.26,0,.37l0,0,0,.06,0,.16a1.54,1.54,0,0,0,.62,1.1l.08,0,0,.07,0,.11-.33,1.35-.09.3,0,.26a1.36,1.36,0,0,0-.05.43v.47l0,.32c-.1.83-.18,1.66-.23,2.51l-.05.48,0,.66a2.44,2.44,0,0,1-.13.69,1.47,1.47,0,0,0-.08.52,1.24,1.24,0,0,0,.07.4.52.52,0,0,1,0,.21.6.6,0,0,1,0,.24l0,.08v.08a1.09,1.09,0,0,1,0,.26v.16l0,.21-.06.21v.29l.09.87v.31a4.5,4.5,0,0,1,0,.53v.29c0,.21,0,.49.06.82l0,.58,0,.55a.79.79,0,0,0,.07.29l0,.13,0,.16v.44l0,.43v.34l0,.34v.19a1.62,1.62,0,0,0,.07.44s0,0,0,0a.2.2,0,0,1,0,.11,1.25,1.25,0,0,0-.11.56v.29l0,.26,0,.47,0,.5,0,1a8.51,8.51,0,0,0,.1,1.06c.12.73.22,1.47.28,2.2l0,.34v.16c0,.16.05.33.07.5a3.06,3.06,0,0,1,0,.53l0,.84a.58.58,0,0,0,0,.21,2,2,0,0,1,.21.6l0,.31.07.35c0,.08.05.16.07.25a1.89,1.89,0,0,0-.26.76v.16a2,2,0,0,0,0,.35,3.12,3.12,0,0,0,.54,1.49,3.08,3.08,0,0,0,.24.34l.24.3c.19.26.32.42.36.49a1.14,1.14,0,0,0,.38.42h.06a.69.69,0,0,0,.3-.12.41.41,0,0,1,.19,0,.34.34,0,0,1,.14,0l.18.06.17.06h.37a.42.42,0,0,1,.35.12.39.39,0,0,0,.16.1h.17l0,0,0,0v0h.35a1.11,1.11,0,0,1,.34,0h.53a.2.2,0,0,1,.15.06l.07,0h.09a7.82,7.82,0,0,0,1.25.09,2.57,2.57,0,0,0,.56-.07l.17,0h.32l.17,0,.09,0h.16a.18.18,0,0,0,.13-.06s0,0,0,0,0,0,0,0a.54.54,0,0,0,.24.05l.11,0,.42,0,0,0,0,0,.08,0h.22l.2,0,.31,0h.37l.3,0h.1l.07,0,.08,0h0a.15.15,0,0,1,.11,0h0l0,0s.05,0,.08,0a.2.2,0,0,1,.08,0,.2.2,0,0,0,.13,0,.27.27,0,0,0,.18-.07.45.45,0,0,1,.23-.09l.06,0,.17,0,.15,0,.77-.08h.1a.15.15,0,0,1,.11,0,.24.24,0,0,0,.15,0l.08,0,.08,0,.17,0a.67.67,0,0,1,.2,0l.2,0,.19,0a.36.36,0,0,0,.21-.11.31.31,0,0,1,.18-.07l.11,0a.25.25,0,0,0,.19-.09l0,0h0l0,0h0a.18.18,0,0,1,.12,0h.05l.09,0,.09,0h.15a.22.22,0,0,0,.13-.09l.08,0,.06,0H257a.11.11,0,0,0,.07,0,.49.49,0,0,1,.29-.13h.15l.15-.07a.1.1,0,0,0,.09,0l.1,0,.1,0,.1,0a.15.15,0,0,1,.11-.07h0l.06,0,.07,0h.12l.12,0,.26-.07a.12.12,0,0,0,.11.08h0l.05,0h.16c.1,0,.15-.17.16-.52v-.24l.11.1,0,0,0,0h0s0-.06,0-.17a.29.29,0,0,0-.06-.21s0-.08,0-.18v-.08h0s0-.07,0-.21v-.06a.48.48,0,0,0-.07-.23.37.37,0,0,1,0-.22V92l0-.12h0l0,0s0,.06,0,.06,0,0,0-.06-.06-.14-.09-.14,0,0-.05.1a.19.19,0,0,1,0,.09.43.43,0,0,1-.11-.12l0,0h0l-.16,0-.1,0a2.81,2.81,0,0,0,.34-.36h0s.05,0,.07-.09a1.52,1.52,0,0,0,.35-1,1.34,1.34,0,0,0-.11-.47l0,0,0-.06-.1-.21a2.54,2.54,0,0,0-.36-.45l.06-.17a.38.38,0,0,0,0-.11l0-.1,0,0,0,0v0l0-.06v-.14l0-.25a.5.5,0,0,0,0-.12l-.05-.08h-.09l-.09,0a.22.22,0,0,0-.18.11h-.07a.37.37,0,0,0-.22,0,.23.23,0,0,0-.2.11s0,0,0,0,0,0-.07,0a.24.24,0,0,0-.18-.08.28.28,0,0,0-.23.15s0,0,0,0,0,0-.05,0a.09.09,0,0,0-.08-.06.18.18,0,0,0-.09.07l-.06,0a8.13,8.13,0,0,0-1.31-.18l-.71-.06-.68,0h-.28l-.38,0c-.33,0-.6-.07-.8-.08l-.44,0a2.09,2.09,0,0,0-.43,0,1.25,1.25,0,0,0-.58.17s-.08.06-.16.06l-.15,0h-.37a.65.65,0,0,0-.19,0,.41.41,0,0,0-.16,0l-.09,0-.09,0h0a.23.23,0,0,1-.16,0,.27.27,0,0,0-.12,0l-.18.06a1.42,1.42,0,0,1-.4.12l-.22,0a1.65,1.65,0,0,1,0-.31,1.07,1.07,0,0,1,.05-.4v-.08l0-.08c0-.15-.05-.41-.08-.76l0-.45a4,4,0,0,0,0-.5v-.36l0-.29,0-.61-.08-.6-.08-.63,0-.42,0-.45,0-.43,0-.39,0-.21v-.19l-.05-.52a1.21,1.21,0,0,1,.08-.53,1.83,1.83,0,0,0,0-.48v-.16l.15,0,.13,0h.06l0,0a.17.17,0,0,0,.12-.06l.06,0H250l.13,0h.12l0,0a.34.34,0,0,1,.19.1.15.15,0,0,0,.1,0,.17.17,0,0,0,.12-.06s0,0,.06,0,0,0,.06,0v0h0l.06-.06h0l.06,0,.06,0h0l0,0,.22-.08a1.48,1.48,0,0,1,.24,0h.07a.48.48,0,0,0,.21-.06l.15-.06.13,0a.21.21,0,0,0,.09,0l0-.06,0,0,.43,0a.19.19,0,0,0,.15-.08v0a0,0,0,0,1,0,0c.05.05.09.08.13.07h0l.06,0,.06,0,.13-.06.12,0,.25,0,.24-.06a.79.79,0,0,1,.34-.09.43.43,0,0,1,.19,0l.15,0a.52.52,0,0,0,.22-.06l.12,0h.22l0,0a.27.27,0,0,1,.12-.1h.12a.38.38,0,0,0,.28-.09l.27-.08.28-.06v0l0,0v0l.06,0h.06a.18.18,0,0,0,.12-.14.35.35,0,0,1,.27-.21H257l.12-.06.12-.11.12-.1a.29.29,0,0,1,.15-.06.18.18,0,0,1,.13,0,.2.2,0,0,0,.16,0c.14,0,.25-.2.32-.61,0-.07,0-.17,0-.29l.06-.16,0-.21a4.26,4.26,0,0,0,.16-.91,7.48,7.48,0,0,0,0-1,6.23,6.23,0,0,0-.2-1.41l0,.05v-.08l0-.18a2.76,2.76,0,0,0-.63-1.2.35.35,0,0,0-.22-.12l-.12,0-.1,0s0,0-.09-.07l-.13-.11-.09,0s-.08,0-.09.14l0,0,0,0-.07-.05-.06,0,0,0v0h0l0,0,0,0a0,0,0,0,0,0,0s0,.09-.09.1l-.09,0h0s0,0-.06,0a.11.11,0,0,0-.1,0l-.12,0-.09,0-.1,0-.06.08,0,.06h0a.21.21,0,0,1-.09-.05c0,.1,0,.16-.09.16s-.05,0-.1-.13h-.06a.12.12,0,0,0-.09,0l-.12.08a.27.27,0,0,1-.12,0,.19.19,0,0,1-.13,0v0l0,0a.2.2,0,0,1-.15.06l-.16,0-.15,0h-.16l-.18,0-.16,0h-.31l-.12,0,0,0h-.07l-.12.06h0a.12.12,0,0,1-.09,0,.14.14,0,0,0-.1,0l-.09,0-.06.06,0,0h-.06l-.06,0s-.08,0-.1-.07,0,0,0,0a.21.21,0,0,0-.09,0l-.06.06h-.06l-.59,0-.56,0a.48.48,0,0,1-.32-.15.25.25,0,0,0-.15,0h-.13l-.77,0-.75,0a6.05,6.05,0,0,1,.16-1,2.3,2.3,0,0,0,.11-.59V70l0-.29c.05-1.11.12-2.07.22-2.88.07-.47.14-.89.21-1.24l.14-.56.08-.27a.28.28,0,0,1,.12-.16.31.31,0,0,1,.13,0l.15,0h.1l.09,0,.09,0a.16.16,0,0,1,.1.1l0,0h.56l.43,0,.53.06.28,0a1,1,0,0,1,.28.07.76.76,0,0,0,.38.09.46.46,0,0,0,.24-.08l.13,0a.41.41,0,0,1,.18,0,2.55,2.55,0,0,0,1,.18,2.68,2.68,0,0,0,.56-.07.57.57,0,0,1,.18,0l.13,0a2.05,2.05,0,0,0,.81.11,5.36,5.36,0,0,0,.74-.08h.09l.19,0a1.25,1.25,0,0,0,.65.11h.31l.34,0a.2.2,0,0,0,.18-.09.39.39,0,0,0,.09-.26l0-.21,0-.19,0-.05v0l.06,0,.06-.06a.16.16,0,0,0,.06-.13.16.16,0,0,0,0-.08s0,0,0,0l-.61-.49.1-.05.09,0,.06,0,.06,0a.19.19,0,0,0,.09-.13c-.09-.21-.15-.33-.17-.37l.16-.05a.47.47,0,0,0,.05-.22l0-.15,0-.16,0,0,0,0,.06,0,.06-.06a.27.27,0,0,0,.06-.11.08.08,0,0,0,0-.07l-.29-.18a.85.85,0,0,1,.31-.06,1.42,1.42,0,0,1,.28,0s0,0,.06-.06l.06-.13c-.32-.38-.58-.56-.76-.56l-.56,0v0l-.08-.15a.1.1,0,0,1,.08-.05.12.12,0,0,1,.08,0h0l0,0,0-.11s0-.1-.05-.14l.09,0,.12,0a1.19,1.19,0,0,1,.31-.17.31.31,0,0,1,.16.1c.08.08.15.13.22.12s.16-.06.24-.19a.17.17,0,0,1,.12-.08.3.3,0,0,1,.16.07l.06,0h.09v-.15l-.11-.42v-.08c0-.16,0-.27.11-.32a.32.32,0,0,0,.15-.3m-17,22.1,0,.5,0-.32,0-.31L242.71,80l0-.08v-.08a.12.12,0,0,1,.12-.06l.07.19,0,.21a2,2,0,0,1,.07.52Zm1-23,.09,0h0Zm.74,9.45-.11.48-.14.51a4.8,4.8,0,0,1-.08-.71,7.37,7.37,0,0,1,.14-1.46,5.21,5.21,0,0,1,.18.63c0,.12,0,.24,0,.34a.58.58,0,0,1,0,.21m3.1.86c-.09,0-.13-.08-.13-.13v0l.06-.06h0l.06,0,.06,0,0,0a.2.2,0,0,1,0,.08c0,.06-.05.1-.15.14m.38-2.83H248l0-.08v0h.09l.06,0h0Zm10.47,27.05h0s0,0,0,0l0,.09,0,.1,0-.08,0-.06v-.06l.07,0m-.25,0v0l0,0v0l0,0,0,0Zm-1.37,0s0,0,0,0h0l0,0,.18,0h.4a1.13,1.13,0,0,0,.39-.07h0s.11.06.17.2l-.06,0-.06,0,0,.07,0,0,0,0L258,93l-.14,0-.06,0a.09.09,0,0,0-.07,0h0l0-.06-.06-.08v.1l-.8,0,.24-.13m-8.35-29.74h0m7.46,14.6a.15.15,0,0,1-.1,0h0Zm-3.22-.72.06-.05a.12.12,0,0,1,.12-.06h.25l-.09,0-.09.06-.25.14,0,0,0,0V77ZM250.09,73s0,0,0,0v.11c0,.09,0,.13,0,.13v0l0,0v-.08l0,0Zm-.34,2.78a.17.17,0,0,1,.12-.08l.12.1.1.07a.44.44,0,0,1-.34.15l-.18,0a1.06,1.06,0,0,1,.18-.22m-.4-2.78,0,0,0,.1h0l0-.14Zm-.16-9.44-.07,0-.06,0,0-.11h.06l0,0,0,0,0,.05,0,0v0Zm.24-.19,0-.05v0l0,0,0,0,.06.13Zm.68,0,0-.07v-.06l.09,0v0l0,.05Z" transform="translate(0 0)"/><path class="cls-3" d="M289.54,94.64q.61-.17.57-.36l0-.2V94c0-.06-.05-.09-.13-.12v-.5l0-.17,0-.08-.07-.07v0a.19.19,0,0,1,0-.16.32.32,0,0,1-.05-.13l0-.14a.29.29,0,0,0,0-.13.16.16,0,0,0-.07-.11.76.76,0,0,0,0-.21l0-.19a.61.61,0,0,1,.08-.4.21.21,0,0,0,0-.11l0-.09v-.09a.34.34,0,0,1,0-.1.36.36,0,0,0,.06-.2l0-.19,0-.11-.05-.11v-.07a.3.3,0,0,1,0-.16v0l0,0v0l0-.06a.36.36,0,0,0,0-.27.29.29,0,0,0-.05-.13.39.39,0,0,1,0-.26.45.45,0,0,0,.06-.3l-.07-.24-.1-.24a2.41,2.41,0,0,1-.08-.25,1.8,1.8,0,0,1,0-.22V88a.31.31,0,0,0-.09-.19.25.25,0,0,1-.08-.12v-.24a3.88,3.88,0,0,0,0-.49,2.12,2.12,0,0,0-.14-.61,1,1,0,0,0-.07-.21.12.12,0,0,1,0-.08.52.52,0,0,1,0-.31.48.48,0,0,0,0-.26.37.37,0,0,0-.08-.15l0,0a1.7,1.7,0,0,0,0-.22.48.48,0,0,0-.05-.18l0-.11v-.12l0-.13v0a.34.34,0,0,1,0-.1.32.32,0,0,0,.05-.19.72.72,0,0,0-.09-.24,3,3,0,0,1-.17-.61l-.15-.64,0-.64c0-.2,0-.42,0-.67l-.06-.67-.06-.32,0-.32a2.61,2.61,0,0,0-.12-.64l-.15-.32-.09-.34a2.33,2.33,0,0,1-.06-.35,1.7,1.7,0,0,1,0-.32v-.08l0,0a.81.81,0,0,1-.3-.58,1.36,1.36,0,0,1,.08-.54V76.8l0-.1a3.92,3.92,0,0,0-.16-.77l-.22-.77a7.61,7.61,0,0,1-.26-1.28l0-.29,0-.11,0-.1a9.14,9.14,0,0,1-.23-1l-.18-1c-.18-.88-.33-1.56-.45-2l-.3-1-.3-1-.43-1.4-.18-.6-.21-.66a5.61,5.61,0,0,0-.17-.58l-.38-.79a4.23,4.23,0,0,1-.32-.81,4.25,4.25,0,0,0-.67-1.35l-.24-.31-.25-.33c-.12-.19-.32-.46-.59-.8l-.35-.43-.39-.49a3.26,3.26,0,0,0-1.32-1,9.29,9.29,0,0,0-2.27-.7,4.12,4.12,0,0,0-.59-.07l-.31,0h-.31l-.31,0-.25,0-.18,0-.4.08a8,8,0,0,0-1.33.47,7.26,7.26,0,0,0-1.79,1.24,10.4,10.4,0,0,0-1.74,2.23A22.34,22.34,0,0,0,268.87,65a19.42,19.42,0,0,1-.74,1.92,5.71,5.71,0,0,0-.27.85l-.12.41-.09.44c-.37,1.49-.69,3-.95,4.52l-.62,4.42a24.65,24.65,0,0,1-.63,3.25c-.06.26-.12.54-.17.85l-.12.87a9.24,9.24,0,0,1-.38,1.71l0,0-.33,2.7,0,.32a.67.67,0,0,1-.1.31.83.83,0,0,0-.12.46.62.62,0,0,0,.08.24.14.14,0,0,1,0,.1.36.36,0,0,1-.07.25,2.32,2.32,0,0,0-.29,1.32,2,2,0,0,0,.06.35.44.44,0,0,1,.05.15.33.33,0,0,1-.05.2,2.72,2.72,0,0,0-.19,1.47l0,.18a.44.44,0,0,1-.07.28,1.54,1.54,0,0,0-.19.66l0,.35v.33a.33.33,0,0,0,.08.21.68.68,0,0,0,.32.11l.46,0,.07,0,.06,0,0,.08,0,.05a.18.18,0,0,0,.16.1h.12l.32-.29.35-.3,0,.11,0,.1v.14a.18.18,0,0,0,.16.09l.46-.14a.2.2,0,0,0,.07.16.31.31,0,0,0,.23.12l.18,0,.19,0,0,0,0,0,0,.08,0,.08a.18.18,0,0,0,.1.07h.06a.09.09,0,0,0,.06,0l.29-.29a.4.4,0,0,1,0,.13,1.24,1.24,0,0,1-.11.52v0l.07,0,.06,0,.07,0c.51-.34.77-.63.8-.86l.1-1.39V91.63l.08-.87.05-.54.14-1.26,0-.29.07-.31a1.29,1.29,0,0,0,0-.38,1.6,1.6,0,0,0,0-.21v0l0,0,0-.11,0-.08.09-.33s0,.08,0,.07h0l0,0,0-.08.11-.12v.16l.05.14a2.92,2.92,0,0,0,.13.53l-.16,1.79-.18,1.79a9.21,9.21,0,0,0-.06,1.22l0,.59,0,.6,0,.16a.33.33,0,0,0,0,.13.59.59,0,0,1,.16.37.4.4,0,0,1-.14.17.3.3,0,0,0,0,.54.2.2,0,0,1,.08.13c0,.06,0,.12-.14.2a.11.11,0,0,0,0,.08l0,.11.19,0,.49,0c.25,0,.41,0,.49.18a.34.34,0,0,0,.36.22c.26,0,.39-.1.38-.24v0l0,0c.18,0,.29,0,.32.19s.15.24.27.23h0c.21,0,.3-.12.29-.26l0-.13,0-.13-.1-.45.2-.1.15-.06c.57-.12.87-.41.89-.88l0-.13,0-.17v-.24l.07-.25a.65.65,0,0,0,0-.19.53.53,0,0,0-.12-.29l.19-1.06.08-.49c0-.2,0-.37.05-.49l0-.54a1.21,1.21,0,0,1,.11-.52,1.57,1.57,0,0,1,0-.41l.09-.38a2.26,2.26,0,0,0,.07-.63.48.48,0,0,0,0-.18l0-.17.13.07a.42.42,0,0,0,.26.09l.21-.07.18-.06a1.51,1.51,0,0,1,.28,0h.12l.16,0a.24.24,0,0,0,.18-.1.18.18,0,0,1,.08-.06l.93-.06h.19a.25.25,0,0,0,.15-.06l.06,0a.43.43,0,0,1,.25.09.32.32,0,0,0,.16,0,.3.3,0,0,0,.18-.1s.07-.06.09-.06a.09.09,0,0,1,.06,0l0,0h0a.17.17,0,0,1,.12-.06h0l.09,0h.19l.27-.13a1.05,1.05,0,0,1,.3-.07,1.32,1.32,0,0,0,.39-.14l.19-.07.18-.06a.34.34,0,0,0,.12-.06l0-.06.06,0,.15,0,.37,0a.26.26,0,0,0,.24-.12v0a0,0,0,0,1,0,0,.29.29,0,0,0,.16,0h.06l.09,0,.09,0,.15-.07.15-.06.34-.08a1.45,1.45,0,0,0,.33-.1l.18-.07a1.66,1.66,0,0,1,.06.21v0a.38.38,0,0,0,0,.28l.05.26.18,1.2c0,.25,0,.49,0,.68a3.61,3.61,0,0,0,.07.48,2.5,2.5,0,0,0,.18.37l0,.1a2.81,2.81,0,0,1,0,1.08l0,.29,0,.26a1.1,1.1,0,0,1-.06.59v0l.1.87,0,.1a.29.29,0,0,1,0,.13s-.06.09-.05.13a.11.11,0,0,0,.09.08.14.14,0,0,1,.07.06l0,0a.43.43,0,0,0-.11.34.3.3,0,0,0,.15.21s.06.06.06.08,0,0,0,0a.39.39,0,0,0-.07.29.7.7,0,0,0,.13.26l0,.1a.3.3,0,0,0-.08.25l.05.11,0,.11a.19.19,0,0,0,.11,0,.75.75,0,0,0,.15,0l.3,0,.18,0h.1l0,0h.18l.13,0,.43-.27.09,0h0v0l.16,0a2,2,0,0,0,.34-.12l.06,0a.88.88,0,0,0,.23,0l.15,0,.12,0h.08l0,0,0,0h.2l.16-.14a.14.14,0,0,1,.07.1.17.17,0,0,1,0,.1v0H286c.36-.19.53-.32.52-.38l-.14-.45-.16-.4-.06-.3v-.16l-.06-.42,0-.1,0-.1V93a.2.2,0,0,0-.08-.14h0l0,0,0,0,0-.12,0-.14v-.06a.35.35,0,0,0-.08-.16v-.1l0,0,.05-.38.06-.36,0-.44,0-.43,0-.07a.12.12,0,0,0,0-.09l0-.13a.41.41,0,0,0,0-.31v-.17l0-.09.09.33.11,1.55c0,.4.08.73.12,1l.14.7.12.71a1.71,1.71,0,0,0,.13.38l.09.19.06.2v0l.06,0a.34.34,0,0,1,.17.11.17.17,0,0,1-.09.06c-.07,0-.11.08-.1.1s.07.06.19.07.08,0,.09,0,0,0-.07.06l0,0h.16l.39-.1.1,0a.52.52,0,0,1,.29,0,.53.53,0,0,0,.29,0h.07c.17,0,.24-.07.24-.11v0l.1,0a.4.4,0,0,1,.24,0,.42.42,0,0,0,.26,0c.13,0,.19-.08.18-.11v0l-.06,0-.06,0-.15-.11.15-.06ZM267.46,84.26l0,.09-.3,2.69,0,.33-.1.33a1.13,1.13,0,0,0-.11.52.44.44,0,0,0,.05.15.47.47,0,0,1,0,.14.45.45,0,0,1,0,.22,2.9,2.9,0,0,0-.25,1.47l0,.35a.72.72,0,0,1,0,.22,3.69,3.69,0,0,0-.19,1.68.73.73,0,0,1,0,.27v-.48l0-.49.13-1.38.1-1.39a19.21,19.21,0,0,1,.34-2.53l.24-1.26c.08-.47.15-.89.2-1.25l0-.11,0-.11.23-.91a10.38,10.38,0,0,1-.31,1.45m2.53-.18-.06.38-.18.07-.15,0,.14-.55.27-.1Zm1.28,6.28-.08.17-.1.25L271,91a.9.9,0,0,1-.26-.5.75.75,0,0,1,0-.21,11.09,11.09,0,0,0,.17-1.23l.12-1.2.12,0h.1l0,.4-.09,0-.09.08.11.18a.51.51,0,0,1,.08.21v0a2.83,2.83,0,0,0,0,.54l0,.55a.72.72,0,0,1,.11.15v.13Zm.41-16.76a4,4,0,0,1-.07-.53l0-.33a2.59,2.59,0,0,1,.06-.76l.23-.63.22-.64a12.46,12.46,0,0,1-.41,2.89m6.71-8.87a3.18,3.18,0,0,1,.26.44l.23.6.21.64-.15-.4-.22-.39-.41-.7Zm1.53,14.76-.15,0-.19,0-.06,0-.06,0-.18.07h-.1a.25.25,0,0,1-.12,0,.24.24,0,0,0-.16,0,.48.48,0,0,0-.15.07l-.06.06-.06,0-.09,0h-.12a.22.22,0,0,1-.13,0s0-.06-.07,0-.05,0-.08.06l-.09.08h-.12l-.87.09-.43,0-.4.06a.88.88,0,0,1-.47-.08.54.54,0,0,0-.22,0l-.22.05-.3,0,.05-.14a4.12,4.12,0,0,0,.21-.82l.06-.76.06-.76c.05-.55.12-1,.19-1.42l.06-.3.07-.3a1.67,1.67,0,0,0,0-.49v-.14a1.1,1.1,0,0,1,0-.35l.07-.38c.15-.89.34-1.87.59-2.93l.07-.27.06-.31a2.65,2.65,0,0,0,.11-.57A2.7,2.7,0,0,1,277,68.9l.1-.25.21.63.24.66a13.22,13.22,0,0,1,.68,2.49,10.15,10.15,0,0,0,.42,1.75l.16.74.16.75.05.24a.33.33,0,0,0,.08.21,2.78,2.78,0,0,1,.24.6l.11.61a9.24,9.24,0,0,0,.3,1.36l.19.79Zm3.21,8.24h-.05l0,0H283s0,0,0,0,0-.06.11-.09.11,0,.12,0v0Zm.2,1.35-.05,0h-.08l0-.07.1,0v.07Zm.21,2.7-.1,0,0-.08.15,0h0Zm.06-.62h-.18l.12-.06.08,0Zm0-.27h0l0,0h-.13s0,0,0,0l0,0,.05,0,.07,0,.08,0Zm.44-.1a1.69,1.69,0,0,0,.27-.1v.09Zm.29.68a1.13,1.13,0,0,1,0,.49l0,0v-.17l0,0Zm.25,3.1-.06-.14-.2-1a3.78,3.78,0,0,1,0-.74l0-.42V92l.13.88,0,.1,0,.11a.26.26,0,0,0-.05.14.13.13,0,0,0,.1.09.05.05,0,0,1,0,0,.09.09,0,0,1,0,.07.45.45,0,0,0,.06.55s0,0,0,.06,0,0,0,0a.53.53,0,0,0,0,.28,1.46,1.46,0,0,0,.11.28l0,.08Zm1.14-6.74a.46.46,0,0,1-.09-.19v0l0-.22.06-.23a1.73,1.73,0,0,1,.21.56,2.18,2.18,0,0,1,.05.38,1.48,1.48,0,0,1-.25-.25m2.05,5.57v0a1.57,1.57,0,0,0,0-.52l-.1-.51,0-.23,0-.06v0s-.05-.07-.12-.09-.06,0-.06,0l0,0c.11-.06.17-.13.17-.21v-.09l.22,1.13,0,0-.07,0,.11,0,.09.06h0a.28.28,0,0,0,0,.09.59.59,0,0,0,0,.08l.07.17.11,0,0,0v0l-.07.06,0,.09,0,.09c-.18,0-.27-.09-.29-.15m.15.36,0,0,.07,0,.06,0-.05,0H288Zm.25.3-.1,0,0,0v0a.41.41,0,0,1,0-.1h.08l.08,0,.1,0Z" transform="translate(0 0)"/><path class="cls-3" d="M239.81,94.22c.3-.24.42-.4.35-.49l-.11-.13,0,0,0,0a.15.15,0,0,0-.15,0l-.13-.27-.07-.11-.09-.11-.06,0-.09,0,0,0a.14.14,0,0,1,0-.14.18.18,0,0,1-.09-.07l0-.11a.31.31,0,0,0-.05-.1.12.12,0,0,0-.1,0,.84.84,0,0,0,0-.17l-.11-.13a.5.5,0,0,1-.1-.33.13.13,0,0,0,0-.08l-.06-.06,0-.07a.2.2,0,0,1,0-.08.25.25,0,0,0,0-.17l-.11-.13-.08-.06-.09-.07,0,0a.15.15,0,0,1,0-.12l0,0h0l0,0v0a.27.27,0,0,0-.06-.23l-.1-.07a.37.37,0,0,1-.07-.2.4.4,0,0,0-.06-.25l-.16-.15-.17-.14a1.29,1.29,0,0,1-.17-.16.65.65,0,0,1-.1-.15l0-.09,0-.08a.33.33,0,0,0-.15-.11h0L237,89a1.78,1.78,0,0,0-.76-1,.35.35,0,0,1-.13-.1l-.07-.16,0-.06a.34.34,0,0,0-.05-.14l0,0,0-.09a.74.74,0,0,0-.23-.32l-.09-.08-.07-.07a.28.28,0,0,1-.1-.19c0-.11-.08-.21-.23-.31a2.61,2.61,0,0,1-.45-.39l-.2-.21-.19-.2a2.33,2.33,0,0,1-.36-.45,3.37,3.37,0,0,0-.36-.49l-.39-.45-.2-.23-.19-.21a3.45,3.45,0,0,0-.42-.39l-.29-.17-.26-.18a1.08,1.08,0,0,1-.42-.44l0-.08-.07,0a.77.77,0,0,1-.27,0s0,0-.06,0l-.22-.27-.07-.06s0-.05.05-.07,0,0,0,0-.06-.06-.18-.08a1.8,1.8,0,0,1-.24-.19l-.25-.3,0,0v-.07l-.12-.14a.34.34,0,0,0-.14-.05h.23s.06,0,.06,0l0,0,0-.06h.1v0a2.07,2.07,0,0,0,.58-.24l.34-.2.36-.28q.33-.23.75-.57a14.26,14.26,0,0,0,1.4-1.29l.71-.81.71-.84a3.24,3.24,0,0,0,.52-.77l.2-.42.2-.41a14.24,14.24,0,0,0,.74-2.26c.07-.38.12-.75.17-1.11l.07-.49,0-.54a12.17,12.17,0,0,0-.44-4.37A16.07,16.07,0,0,0,235.07,63a7.91,7.91,0,0,0-1.37-1.7l-.81-.75-.84-.75-.09-.05a13.21,13.21,0,0,0-3.26-1.51l-.38-.12a1.13,1.13,0,0,1-.38-.17,1.51,1.51,0,0,0-.72-.22l-.18,0a.31.31,0,0,1-.13,0,.57.57,0,0,1-.31-.1,3.6,3.6,0,0,0-1.63-.31l-.52,0-.22,0a.54.54,0,0,1-.22-.05,3,3,0,0,0-.93-.1,6.7,6.7,0,0,0-1.2.19h-.34a2,2,0,0,0-.5,0,3.13,3.13,0,0,0-.43,0l-.43.1-.43.1c-.12,0-.21.08-.24.14a.25.25,0,0,0,0,.3l.1.21.1.16v.08l0,0-.06.06,0,.08a.16.16,0,0,0-.06.14c0,.07,0,.12.07.13l.18,0,.09.56,0,.46,0,.3v.67l0,.16-.06.17v.08a.49.49,0,0,0,.08.24v0l0,.06,0,.05-.11.38a.72.72,0,0,0,0,.19.44.44,0,0,0,.07.22l0,.16,0,0-.17.57-.16.6-.06.7,0,.67,0,.14a.17.17,0,0,0-.05.14l0,.21a.93.93,0,0,0-.13.63l0,.13,0,.14v-.54l.24-2.54c0-.63.06-1.15.08-1.56l0-1.19.05-1.16c0-.16,0-.37-.06-.64l-.08-.32v-.4L219,58.4a.55.55,0,0,1-.19-.18l.15-.12c.1,0,.15-.08.15-.14s-.08-.08-.23-.12-.09-.06-.09-.08,0-.07.08-.11l0,0v0l-.18,0-.5,0h-.12a.61.61,0,0,1-.35-.07.41.41,0,0,0-.31-.09h-.09c-.23,0-.34.07-.34.12v0h-.12a.28.28,0,0,1-.25-.07.44.44,0,0,0-.32-.09q-.27,0-.27.12v0l.06,0,.07.08.16.21-.21.06L216,58c-.54.07-.8.23-.79.46v0l0,.09v.19l0,.13V59a.2.2,0,0,0,.13.19l-.1.57,0,.27v.27l.08.26v.06a.26.26,0,0,1-.09.21.19.19,0,0,1,0,.11.23.23,0,0,1,0,.11l0,.22a.75.75,0,0,0,0,.21.38.38,0,0,0,.07.22,1.36,1.36,0,0,0-.08.32l0,.33a.94.94,0,0,1-.19.62.59.59,0,0,0,0,.14l0,.16v.14a.21.21,0,0,1-.05.16.79.79,0,0,0-.12.3v.32l0,.19,0,.19a.79.79,0,0,1-.08.38v0l0,.06v.1l0,.08a.9.9,0,0,0-.1.52v.11a.76.76,0,0,1-.1.41,1,1,0,0,0-.14.46l0,.4.05.43a4.65,4.65,0,0,1,0,.78l0,.16,0,.17a.94.94,0,0,0,.08.34l0,.22v.19l-.08,1.67-.05.32a1.53,1.53,0,0,0,0,.35v.08a1.48,1.48,0,0,1-.13.55.87.87,0,0,0-.08.4.68.68,0,0,0,.07.27.32.32,0,0,1,.07.19.22.22,0,0,1-.05.16l0,0,0,.06a.4.4,0,0,1,.07.24v.08l0,.16-.05.17v.21l.09.62a2.23,2.23,0,0,1,0,.34.8.8,0,0,1,0,.27v.22c0,.18,0,.39.06.62l.08.4,0,.43a.68.68,0,0,0,0,.21l.06.08,0,.11,0,.32,0,.56,0,.25v.13a1.07,1.07,0,0,0,.08.38s0,0,0,0a.16.16,0,0,1,0,.08.62.62,0,0,0-.1.41V80l0,.18.05.35,0,.35.06,1.4a4.6,4.6,0,0,1,.05.64,4,4,0,0,1,0,.78,2.43,2.43,0,0,0,0,.6,2.35,2.35,0,0,0,0,.37l0,.43,0,.41v.13l0,.14a1.23,1.23,0,0,1,.11.34v.62a2.81,2.81,0,0,0,.05.46,7.13,7.13,0,0,1,.06.75l0,.75h-.06l0,.06,0,0,0,.33a.47.47,0,0,0,.17.34,1.16,1.16,0,0,1,.18.72v.43a1.67,1.67,0,0,0,.05.38l.11.34.1.35a1.19,1.19,0,0,1,0,.26,1.13,1.13,0,0,1-.08.47,1.63,1.63,0,0,0-.12.62.45.45,0,0,0,0,.16l0,.09,0,.12v.27a1.16,1.16,0,0,1-.12.58h0v1a.34.34,0,0,1-.06.12.19.19,0,0,0-.07.12.12.12,0,0,0,.09.09s0,0,0,.07,0,0,0,0a.37.37,0,0,0-.14.33.31.31,0,0,0,.12.22.18.18,0,0,1,.06.08s0,0,0,0a.39.39,0,0,0-.1.28.6.6,0,0,0,.1.27V97a.32.32,0,0,0-.1.25l0,.11v.12a.23.23,0,0,0,.11,0h.16l.3,0,.18,0h.1l0,0h0l.13,0q.11,0,.12,0l.47-.23.08.06h0v0a.39.39,0,0,0,.15,0,2.17,2.17,0,0,0,.35-.1.13.13,0,0,0,.06,0,.82.82,0,0,0,.23,0l.15,0,.12,0h.06l0,0h0l0,0a.17.17,0,0,0,.1,0h.1l.17-.13a.13.13,0,0,1,.06.11.2.2,0,0,1,0,.1v0h.06l.13,0c.37-.16.56-.28.55-.34l-.09-.46-.12-.41,0-.3v-.17l0-.41v-.1l0-.11v-.05a.35.35,0,0,0-.06-.14l0,0,0,0,0,0,0-.12,0-.13v-.07a.37.37,0,0,0-.07-.16l0-.1,0,0,.09-.37.1-.36v-.94s0-.06,0-.09v-.13a.43.43,0,0,0,.08-.3v-.09l0-.08,0-.09,0,.33,0,1.56c0,.4,0,.73,0,1l.07.71,0,.72a3,3,0,0,0,.08.39l.07.2L220,97v0l.06,0a.4.4,0,0,1,.16.12.14.14,0,0,1-.1.06q-.12.06-.12.09s.07.07.19.09.08,0,.08,0,0,0-.07.06l0,0v0h.15l.4-.07h.11a.54.54,0,0,1,.28,0,.49.49,0,0,0,.28,0h.08c.17,0,.25,0,.25-.08v0h.1a.45.45,0,0,1,.24,0,.38.38,0,0,0,.26,0c.13,0,.19-.06.19-.1h0l0,0-.06,0-.14-.12.15,0,.15,0c.42-.08.62-.18.61-.32l0-.2,0-.06v0a.18.18,0,0,0-.12-.12l0-.36V96l0-.16,0-.08-.06-.08v0a.17.17,0,0,1,.06-.15.4.4,0,0,1,0-.13l0-.14a.29.29,0,0,0,0-.13.16.16,0,0,0-.06-.12.66.66,0,0,0,.06-.2l0-.2a.57.57,0,0,1,.12-.39.44.44,0,0,0,0-.1v-.19a.44.44,0,0,1,0-.1.46.46,0,0,0,.08-.19v-.2l0-.11,0-.12v-.06a.22.22,0,0,1,0-.16v0l0,0v0l0,0a.37.37,0,0,0,.07-.27.31.31,0,0,0,0-.13.48.48,0,0,1,.05-.26.48.48,0,0,0,.1-.29l0-.24-.07-.25a1.19,1.19,0,0,1,0-.26,1.08,1.08,0,0,1,0-.18h0v0l0-.12v-.1a.29.29,0,0,0-.07-.19.26.26,0,0,1-.06-.13v-.47a.25.25,0,0,0,0-.08,1.28,1.28,0,0,0,.08-.35l0-.35.05-.33v-.13a.56.56,0,0,0,0-.21l-.07-.19,0-.16v-.11a.39.39,0,0,1,0-.24l0-.06,0,0a.33.33,0,0,1-.16-.2v-.17a1,1,0,0,1,.14-.23v-.1a2,2,0,0,0,0-.25,1.92,1.92,0,0,0-.05-.32L223.1,86l0-.3a5.62,5.62,0,0,1,.67.49l.83.61.42.31.06.07.07,0,.09.08a12.62,12.62,0,0,1,1.61,1.3l-.06,0,0,.08,0,.06L227,89l.16.15a1,1,0,0,0,.44.25,1.81,1.81,0,0,1,.84.64l.19.21.2.24a2.57,2.57,0,0,0,.32.33l.42.34.39.33a2.24,2.24,0,0,1,.43.6l.28.21.35.47.76.94a2.06,2.06,0,0,1,.42.8l.1.22.13.19a.82.82,0,0,1,.17.46h0L233,96l.06.07a.21.21,0,0,1,0,.11c0,.06,0,.09,0,.12s.06,0,.11,0l.08,0a.08.08,0,0,1,0,0,.31.31,0,0,0,0,.29.3.3,0,0,0,.21.1l.08,0s0,0,0,0a.26.26,0,0,0,.05.24.7.7,0,0,0,.21.14l.06.07a.2.2,0,0,0,0,.21l.08.07.06.07h.12l.13-.07.24-.15.13-.1.07,0h.1l.12-.05.09-.07.27-.37h.13a.34.34,0,0,0,.15,0l.24-.22H236l.2-.09.11-.08.1-.07,0,0h.1l.09,0,.08,0,.07-.17a.19.19,0,0,1,.11,0,.11.11,0,0,1,0,.08h.06l.12,0c.23-.28.33-.44.29-.48l-.3-.28-.28-.24-.17-.19-.07-.12-.21-.29-.05-.06,0-.09,0,0a.24.24,0,0,0-.12-.07h0v-.07l0-.1,0-.11,0,0a.25.25,0,0,0-.13-.09l0-.07,0,0-.11-.3-.09-.29-.2-.31-.2-.31,0,0a.09.09,0,0,0,0-.08l-.07-.09a.33.33,0,0,0-.09-.25l0,0,0-.07v-.08l.2.21.69,1.11c.19.28.35.51.48.68l.39.47.38.48a1.61,1.61,0,0,0,.26.24l.15.1.13.12,0,0h.06a.39.39,0,0,1,.19,0,.1.1,0,0,1-.05.08c0,.07-.06.11,0,.12s.08,0,.19,0,.08,0,.09,0,0,0,0,.07v0h0l.12-.07.3-.22.08,0a.7.7,0,0,1,.25-.11.45.45,0,0,0,.25-.09l.06,0c.13-.09.18-.15.17-.17l0,0,.08,0c.09-.06.16-.09.2-.08a.45.45,0,0,0,.24-.09c.09-.08.13-.13.11-.15h-.13l-.18,0,.11-.1Zm-22.16,2.51,0-.15-.1-1a4.12,4.12,0,0,1,0-.74l.06-.42,0-.28,0,.89v.1l0,.1a.25.25,0,0,0-.07.14.12.12,0,0,0,.09.1s0,0,0,0a.14.14,0,0,1,0,.07.44.44,0,0,0-.1.31.43.43,0,0,0,.1.24l0,.07a.08.08,0,0,1,0,0,.41.41,0,0,0-.05.27.67.67,0,0,0,.08.29v.09Zm0-2.63,0,0V94l0,0,.07-.31a1.4,1.4,0,0,1-.08.49m.12-1.17-.26,0,.28-.07Zm0-29.93a.56.56,0,0,0-.27.28v.16l0,.16V61.55l.06,0,.09,0-.12-.1-.1-.1a2.66,2.66,0,0,0,0-.3l-.05-.29a.42.42,0,0,1-.12-.08v-.08l0-.08.06-.08.09-.14.05-.14c.19.12.29.23.29.34v.05a3.26,3.26,0,0,0-.09.84l0,.41,0,.43,0,.38v.08l0,.08a.28.28,0,0,0,.13.15l0,.08v0Zm1.1,7.63-.11.35a2.77,2.77,0,0,1-.12-.77,5.84,5.84,0,0,1,0-.81,4.12,4.12,0,0,1,.23.47,1.24,1.24,0,0,1,.08.32v.09Zm.64,19.48a.48.48,0,0,1-.07-.2v0l.06-.22.08-.22a1.68,1.68,0,0,1,.16.57,2.41,2.41,0,0,1,0,.38,1.32,1.32,0,0,1-.22-.26m1.56,6.08h0l.07,0,.06,0-.05,0,0,0Zm.2.32-.09,0s-.06,0-.06,0h0a.22.22,0,0,1,0-.1h.07l.08,0,.11,0Zm.11-.74-.07,0,0,.09,0,.09c-.18-.06-.27-.11-.28-.18v0a1.46,1.46,0,0,0,0-.52l0-.52v-.23l0,0v0s0-.08-.11-.11-.05,0-.05,0,0,0,0,0,.18-.12.19-.2l0-.08.1,1.14,0,0-.07,0,.11,0,.08.07h0a.2.2,0,0,0,0,.09.2.2,0,0,0,0,.08l0,.18.1,0,0,0ZM231.83,71.3l.07-.57a2.83,2.83,0,0,1,.22.66v.25a1.57,1.57,0,0,1,0,.32,5.25,5.25,0,0,1-.43.93c0-.32,0-.67.08-1Zm-6-11.45a8.83,8.83,0,0,1,2.64.78,13.89,13.89,0,0,1,1.72,1,11.74,11.74,0,0,0-2.37-1.08l-.32-.12-.32-.12a1.31,1.31,0,0,0-.59-.17h-.22a.75.75,0,0,1-.28,0,2.8,2.8,0,0,0-1.34-.27h-.13v-.05Zm1.86,10.72c0,.16,0,.32,0,.46a2.24,2.24,0,0,0,0,.41,5.27,5.27,0,0,1-.19.68l-.05.13-.06.11a.65.65,0,0,0,0,.25A.58.58,0,0,1,227,73a.46.46,0,0,0-.27.41c0,.11-.06.17-.14.17l-.06,0,0,0a.24.24,0,0,1-.12.19l-.12.09-.09,0-.12.14-.18.17-.21.2-.08.11-.06,0,0,0-.19.11a4.8,4.8,0,0,1-.88.44c-.38.16-.77.31-1.16.45l0-.3v-.86l0-.86a3.73,3.73,0,0,1,.18-1,1.17,1.17,0,0,0,.1-.41l0-.46.12-2.35V68.28l0-1.15a6.88,6.88,0,0,1,.22-1.52h0l.15,0,.13,0h.06a.25.25,0,0,1,.22.1l.09,0a.32.32,0,0,1,.13,0l.18.07a.6.6,0,0,0,.32.1l.09,0,.22.12.26.1a.54.54,0,0,1,.38.31.21.21,0,0,0,.1.08l.09.05.07,0a.08.08,0,0,1,.06.08.24.24,0,0,0,.1.18l.13.13.13,0,.09,0a.15.15,0,0,1,.1.16v0l0,0h0l.06,0v.11a.61.61,0,0,0,.13.31.34.34,0,0,1,0,.16v.11a.69.69,0,0,0,0,.24v.09l.13.26a2,2,0,0,1,.11.32,2.7,2.7,0,0,1,.12.67l0,.16,0,.16a.75.75,0,0,0,.08.32.78.78,0,0,1,0,.22Zm-2-6.76v-.08l0-.08-.15.09a.32.32,0,0,1-.16.06h0a1.74,1.74,0,0,0-.37-.07h-.38a.47.47,0,0,1-.12.09l-.09,0-.12-.05-.1,0,.06-.17,0,0,0-.19h.06l.56.12.57.08a7.66,7.66,0,0,1,1.09.28,3.15,3.15,0,0,1,.44.17l.1,0,.09,0a.21.21,0,0,0,.13,0l.12,0h.09s0,0,0,0a.59.59,0,0,0,.2.37l.16.1.13.1a6.8,6.8,0,0,0-2.34-.9m3.53-.11a7.05,7.05,0,0,0-2.15-1.1,11.36,11.36,0,0,0-2.75-.49v0l0-.17a.29.29,0,0,1,.06-.16l.08-.16a7.35,7.35,0,0,1,1.09.14l.25,0,.26.09a1.91,1.91,0,0,0,.56.06h.06l.06.05.1,0,.28.15.29.12a1.55,1.55,0,0,0,.63.19l.22.13,0,0a5.68,5.68,0,0,1,.74.57l.65.59a7.51,7.51,0,0,1,1.33,1.53l.13.19v0a.23.23,0,0,0,0,.11l.07.13.07.13a1.54,1.54,0,0,0,.08.46l.17.37,0,.21v.19l-.28-.69a6.45,6.45,0,0,0-2.14-2.82m2.35,27.86,0,0,0,0h0l0,0h0v0s0,0,.05-.09.1,0,.11,0v0Zm.69.93,0,0h-.07v-.07l.08,0,0,0Zm.85,1.3h-.05a0,0,0,0,1,0,0v0l0,0,0,0,.08,0v0h0v0Zm.19.15h0l-.13.07.08-.09.08,0Zm.19.48-.08,0-.05-.06.12-.07h0Zm.06-.94.19-.18,0,.07Zm.29-2.85a.48.48,0,0,1-.15-.1l0,0-.06-.18,0-.2a1.22,1.22,0,0,1,.4.33,1.89,1.89,0,0,1,.2.27,1.5,1.5,0,0,1-.32-.09m.32,3.54,0,0v0l-.09-.24a1,1,0,0,1,.17.38v0Zm.71,1,.05,0a.13.13,0,0,1,0,.06.32.32,0,0,0,.07.26.35.35,0,0,0,.19.12l.06,0s0,0,0,0a.29.29,0,0,0,.09.21.58.58,0,0,0,.2.17l.05.06-.14-.09-.1-.08-.56-.67a2.62,2.62,0,0,1-.32-.53l-.15-.32-.11-.2.45.6.05.07,0,.09a.2.2,0,0,0,0,.12.12.12,0,0,0,.12,0M237.83,94l0,0a1.16,1.16,0,0,0-.22-.38l-.29-.34-.1-.16v0l0,0s-.07,0-.14,0H237s0,0,0,0,.09-.16.06-.22l0-.07.63.75,0,0-.05,0h.22a.13.13,0,0,0,0,.07l.07,0,.12.1h.1l.05,0v0l0,.07V94c-.17,0-.27,0-.31,0m.38.19-.05,0h-.06v0l0,0h.07Zm.21.15-.06.07s-.05,0-.06,0h0a.24.24,0,0,1,0-.07l.07,0,.07,0,.1,0Z" transform="translate(0 0)"/><path class="cls-3" d="M292.86,95.06a1.32,1.32,0,0,0,1.29,1.1l.21,0h.18a.41.41,0,0,1,.17,0l.1.05.12,0a.68.68,0,0,0,.21,0s.06,0,.09-.07l0,0,.35.13.34.1a6.31,6.31,0,0,0,1.61.18,18.83,18.83,0,0,0,3.56-.48v.08h.12l.16,0,.43-.06.4-.06a1.17,1.17,0,0,0,.49-.2,2.91,2.91,0,0,1,1.05-.27l.34-.06.31,0a2.71,2.71,0,0,0,.56-.09l.52-.18.55-.17h0l.35,0,1-.12h.05l.58,0a1.4,1.4,0,0,1,.41.06l.24,0h.22a.82.82,0,0,1,.48.08h0l.71,0,.08,0a.24.24,0,0,1,.11.06.23.23,0,0,0,.1,0,.1.1,0,0,0,.07-.08s0,0,.05,0h0a.36.36,0,0,0,.28.12A.27.27,0,0,0,311,95s0-.05.06-.05,0,0,0,0a.3.3,0,0,0,.23.07.43.43,0,0,0,.22-.1h.08a.24.24,0,0,0,.2.08l.09,0,.1,0a.46.46,0,0,0,0-.09.53.53,0,0,0,0-.13l-.05-.26,0-.15v-.09l0,0V94.1a.29.29,0,0,0,0-.1l-.24-.38,0-.08v0h0a.53.53,0,0,0,0-.14c-.06-.16-.09-.26-.11-.29s0,0,0,0a.6.6,0,0,0,0-.19l0-.13,0-.11v-.09l0,0v-.09l0-.09-.12-.13a.16.16,0,0,1,.08-.06h.1V92q-.25-.47-.33-.45l-.36.09-.33.12-.23,0h-.14l-.34,0h-.08l-.09,0h0a.24.24,0,0,0-.11.06v0h0l0,0-.1,0-.11,0h-.06a.34.34,0,0,0-.12.06h-.09v0l-.32-.06-.3-.06h-.76l-.07,0-.11,0a.33.33,0,0,0-.26,0h-.06l-.07,0-.08,0,.27-.06h1.26l.8-.06.57-.08.58-.07a1.4,1.4,0,0,0,.31-.09l.15-.07.16,0h0l0,0a.31.31,0,0,1,.08-.15.18.18,0,0,1,.06.08c0,.07.07.1.08.1s.05-.06.05-.16,0-.07,0-.07,0,0,.06,0l0,0h0v-.13l-.09-.34,0-.08a.51.51,0,0,1,0-.25.48.48,0,0,0,0-.24v-.06c0-.15-.06-.21-.09-.21h0v-.08a.32.32,0,0,1,0-.2.31.31,0,0,0,0-.22c0-.12-.07-.17-.1-.16h0l0,0,0,0-.09.13-.05-.13,0-.13c-.1-.35-.2-.51-.31-.5l-.16,0-.06,0h0s-.08,0-.09.1l-.3,0H310l-.13,0-.06,0-.06.06h0a.17.17,0,0,1-.13-.05l-.1,0-.12,0a.41.41,0,0,0-.11,0,.1.1,0,0,0-.08,0h0a.51.51,0,0,0-.17,0l-.15,0h0a.58.58,0,0,1-.33-.08.11.11,0,0,0-.08,0h-.23a.41.41,0,0,0-.17-.07l-.16,0-.09,0-.09,0h0a.21.21,0,0,1-.13,0h0l0,0h0l0,0a.37.37,0,0,0-.23,0l-.1,0a.34.34,0,0,1-.22,0,.45.45,0,0,0-.24-.07l-.2.05-.19.07a.83.83,0,0,1-.21.06.54.54,0,0,1-.18,0h-.18a.34.34,0,0,0-.15.06s0,0-.08,0h-.24l-.09,0-.44,0h-.23a.63.63,0,0,0-.19,0l-.09,0-.06,0H304l-.15,0a.21.21,0,0,0-.11-.05l-.06,0-.1,0a.19.19,0,0,0-.12.07l-.06,0h0a.11.11,0,0,1-.07,0l0,0h0a.24.24,0,0,1-.11.06h-.21l-.11,0-.29.11-.2,0h-.16l-.28,0h-.49l0,0s-.06,0-.1.06l0,.08-.06,0,0,0s0,0,0-.08l0,0c-.08.14-.13.22-.15.22v-.19l0,0s0,0,0,0l-.06,0-.09,0-.09.05h-.16a.09.09,0,0,1,0-.06.27.27,0,0,1,0-.08v0s-.06,0-.06-.08l0-.06V89a1.57,1.57,0,0,0,0-.27l-.06-.11,0-.13v-.24l.05-.46v-.43l.06-.41,0-.18v-.19l0-.51a1.3,1.3,0,0,1,.09-.49,2.24,2.24,0,0,0,0-.46,2.35,2.35,0,0,0,0-.35l0-.18,0-.19v-.46a1.17,1.17,0,0,1,.12-.41.29.29,0,0,0,.06-.19.49.49,0,0,0-.07-.24l0-.21v-.32l.14-2.29,0-1.11.07-1.1a4.11,4.11,0,0,1,.19-1.25,2.9,2.9,0,0,0,.08-.56l0-.54.17-3,.06-2.94a10.71,10.71,0,0,1,.3-2.18l.12-.6.05-.56a3.7,3.7,0,0,1,.22-1.14l0,0,.13-1.84,0-.21.06-.22a.41.41,0,0,0,.12-.27.23.23,0,0,0-.1-.19.19.19,0,0,1,0-.1.29.29,0,0,1,0-.14,1.15,1.15,0,0,0,.2-.68,1.12,1.12,0,0,0-.1-.45.44.44,0,0,1,0-.14c0-.05,0-.09,0-.1a1,1,0,0,0,.14-.6,2.86,2.86,0,0,0-.07-.54V59.7a.16.16,0,0,1,0-.11.74.74,0,0,0,.14-.48v-.25l0-.24s0-.09-.09-.13a1.29,1.29,0,0,0-.31-.07l-.25,0-.22,0-.09,0,0,0,0,0-.06-.06-.15,0a.36.36,0,0,0-.16,0l-.58.42-.06,0,0-.08,0-.06,0,0s-.07-.06-.15-.08l-.44.12a.34.34,0,0,0-.09-.14.47.47,0,0,0-.25,0h-.19l-.15,0-.06,0h0l0-.06,0,0a.35.35,0,0,0-.12-.05.21.21,0,0,0-.13,0l-.21.22a.43.43,0,0,1-.06-.22.45.45,0,0,1,.05-.24s0,0-.06,0l-.19-.08c-.47.26-.7.47-.7.64l0,.94.08.88,0,.6,0,.35,0,.86,0,.21,0,.19a.72.72,0,0,0,0,.19.46.46,0,0,0,.06.22v0l0,.08v.06l-.08.24-.06.27a.78.78,0,0,0,0,.22.63.63,0,0,0,.07.26l0,.22,0,0-.2.76-.14.72-.11.9,0,.88,0,.17a.24.24,0,0,0-.06.13l0,.3a1.55,1.55,0,0,0-.14.78l0,.16-.06.19v-.7l.31-3.21c.07-.8.12-1.48.15-2L297,62l.06-1.48v-.21c0-.18,0-.39-.05-.62l0-.41v-.4l0-.11,0-.08a.73.73,0,0,1-.19-.26.33.33,0,0,1,.12-.11c.11-.06.16-.11.16-.17s-.08-.13-.22-.18-.1-.07-.1-.11,0-.08.12-.13l0-.06v0a.27.27,0,0,0-.12,0l-.06,0-.5,0h-.09a.48.48,0,0,1-.38-.1.42.42,0,0,0-.34-.12h-.06c-.23,0-.34.07-.34.14v.05h-.12a.26.26,0,0,1-.25-.11.33.33,0,0,0-.25-.13h-.06c-.19,0-.28.06-.28.14v0l.06.08.07.11.13.27-.19.08-.15,0c-.56.1-.83.3-.83.61v.35l0,.16v.08a.37.37,0,0,0,.1.24l-.11.73,0,.33a2,2,0,0,0,0,.32l.06.19,0,.18a.6.6,0,0,1-.12.36.75.75,0,0,1,0,.16v.1l-.06.27a.76.76,0,0,0-.05.33.48.48,0,0,0,.06.24,1.34,1.34,0,0,0-.08.38l0,.43a2,2,0,0,1-.2.78l-.06.19v.22l0,.19a.58.58,0,0,1,0,.19.74.74,0,0,0-.14.4l0,.41,0,.21,0,.24v.11a.67.67,0,0,1-.08.38v0l0,.08v.14l0,.11a2,2,0,0,0-.14.81v.11a.93.93,0,0,1-.09.4,1.24,1.24,0,0,0-.14.57v.54l0,.53c0,.38,0,.71,0,1l0,.22,0,.21v.16a1.24,1.24,0,0,0,0,.27,1.56,1.56,0,0,1,0,.27v.24l-.11,2.13-.06.43v.43a.5.5,0,0,1,0,.16,1.59,1.59,0,0,1-.14.65,1.23,1.23,0,0,0-.08.49,1,1,0,0,0,.07.37.81.81,0,0,1,0,.19.46.46,0,0,1-.06.22l0,.08v.08a.61.61,0,0,1,0,.24v.16l0,.19-.06.22v.27l.08.8a3.28,3.28,0,0,1,0,.43,1.83,1.83,0,0,1,0,.35v.3c0,.2,0,.45.05.75l0,.54v.54a.81.81,0,0,0,.06.24l0,.13,0,.14v.4l0,.4v.33l0,.32v.16a1.39,1.39,0,0,0,.07.46s0,0,0,0a.16.16,0,0,1,0,.08,1.12,1.12,0,0,0-.11.54v.27l0,.24,0,.43,0,.43v.89l0,1.13,0,.41.11.72.13.72a5.84,5.84,0,0,0,0,.87,7.3,7.3,0,0,0,.08,1,3.79,3.79,0,0,0,.27,1l0,.09a2.86,2.86,0,0,0,0,.51,3.1,3.1,0,0,0,.1.36v0Zm16-1.06,0-.13v0l.07.05V94Zm.91-.8h.08l.09,0a.19.19,0,0,0,.12,0,.09.09,0,0,0,.07-.08l0,0a.07.07,0,0,1,.06,0,.38.38,0,0,0,.26.07.37.37,0,0,0,.19-.09l.05,0s0,0,0,0a.31.31,0,0,0,.23,0,.63.63,0,0,0,.23-.08h.06l-.12.07-.12,0-.81.12a3,3,0,0,1-.6,0l-.35,0h-.23Zm-.74,0,0,0h-.17l-.26,0a1.05,1.05,0,0,1,.41,0m-.65.56,0,0V94l0-.1Zm-.25,0h0v0h0V94s0,0,0,0l0,0,0,0,0-.06Zm-.07-.59,0,.22-.09-.23Zm2.5-3.06,0-.07V90l0,.11.05.08s0,0,0,0h-.1Zm-.18,0,0,0v.09l0,0,0-.06Zm-.88.11,0,0,0,.06,0-.09,0-.08h0a.08.08,0,0,0,.07,0l.06,0,.15,0,0-.09,0,0h0l0,.06.08,0,.07,0q0,.23-.12.24h0a1.24,1.24,0,0,0-.43,0l-.41.06h-.19l-.05,0h0s-.06,0-.07.1,0,0,0,0,0,0,0,0-.11-.15-.18-.15l-.07,0Zm-2.81,3.68v0l0,0v.07l-.06,0,0-.08Zm-1.07.27,0,0s-.05,0-.08-.1,0-.09,0-.1h0l0,0v0l0,0v.07Zm-.13-2.54.31,0a1,1,0,0,1-.2.2.29.29,0,0,1-.15.07h0l-.18,0-.19-.06a1,1,0,0,1,.45-.16m-5.24-.11.11-.06.35-.17,0,0h0s0,0,0,.08l-.05.06-.08,0-.17.07h-.18l-.19,0Zm-.95-26.26v0l.12-1.86,0-.22,0-.21a.45.45,0,0,0,.09-.25.26.26,0,0,0-.09-.21.17.17,0,0,1,0-.11.25.25,0,0,1,0-.13,1.48,1.48,0,0,0,.17-.73,1.25,1.25,0,0,0-.07-.43v-.24a1.38,1.38,0,0,0,.11-.65,4.6,4.6,0,0,0,0-.49v-.08s0-.09,0-.1v0l0,.35V62.1a10.62,10.62,0,0,1-.19,1.73l-.14.84-.08.86,0,.08,0,0-.14.63a4.1,4.1,0,0,1,.2-1m-3.12,7.38a2.5,2.5,0,0,1,.23.59,1.64,1.64,0,0,1,.07.43v.08l-.11.43-.15.47a6.82,6.82,0,0,1-.08-.86c0-.34,0-.72,0-1.14m-1.14-11.41.09-.11.06-.16.06-.19c.21.16.32.3.32.42v.08a4,4,0,0,0-.11,1.05l0,.54,0,.54-.05.49,0,.11v.1a.31.31,0,0,0,.13.22.08.08,0,0,1,.06.08s0,0-.06,0a.62.62,0,0,0-.27.38l0,.14,0-2.34.06,0,.1-.06-.13-.1-.06-.14v0a.58.58,0,0,0,0-.19.68.68,0,0,0,0-.19l0-.38a.16.16,0,0,1-.09-.07l0-.11Z" transform="translate(0 0)"/><path class="cls-3" d="M323.44,89.74a.48.48,0,0,0,.1-.29l-.05-.24-.07-.25a2.38,2.38,0,0,1-.05-.26,1.55,1.55,0,0,1,0-.22l0-.12v-.1a.38.38,0,0,0-.05-.16.29.29,0,0,1,0-.09v-.38l0-.33v-.11a1.44,1.44,0,0,0-.05-.24l-.07-.15,0-.08v-.13a.58.58,0,0,0,0-.14.38.38,0,0,1,.05-.19v-.08s0,0-.06,0a1.13,1.13,0,0,1,0-.15.52.52,0,0,0,.05-.26.27.27,0,0,0-.06-.16l0,0h0l0,0v0a.26.26,0,0,1,0-.08l0,0v0a.22.22,0,0,1-.05-.11s0-.07,0-.11V85l0-.11v-.13l-.11-.37a2.93,2.93,0,0,1-.05-.35,1.21,1.21,0,0,1,0-.2l0-.06,0-.05a1.4,1.4,0,0,1-.06-.32v-.7l0-.52v-.54l-.06-.53-.07-.51v-.35l0-.38v-.62l0-.16V79l-.09-.4a1.1,1.1,0,0,1,0-.41.93.93,0,0,0,0-.33,1.77,1.77,0,0,0,0-.29l-.07-.16v-.13l0-.19v-.16a.62.62,0,0,1,.08-.33.33.33,0,0,0,0-.16.48.48,0,0,0-.08-.19l-.07-.15v-.16l0-.09-.06-1.8,0-.89-.05-.86a2.86,2.86,0,0,1,.12-1,.86.86,0,0,0,.06-.44l0-.43-.06-2.34-.12-2.29a5.82,5.82,0,0,1,.13-1.73l.07-.46v-.44a2.23,2.23,0,0,1,.16-.92V60.64a.84.84,0,0,1,.08-.19.35.35,0,0,0,.09-.2.17.17,0,0,0-.11-.15.23.23,0,0,1-.07-.11.27.27,0,0,1,0-.08.77.77,0,0,0,.18-.52.7.7,0,0,0-.15-.37.33.33,0,0,1-.07-.13.09.09,0,0,1,0-.06.64.64,0,0,0,.13-.44,1.19,1.19,0,0,0-.13-.45v-.16a.49.49,0,0,0,.13-.38l0-.19V57a.53.53,0,0,0-.13-.1.62.62,0,0,0-.19,0l-.37,0-.21,0-.1,0h0l0-.05-.07,0-.16,0a.24.24,0,0,0-.15,0l-.57.36-.1-.1,0,0v0a.58.58,0,0,0-.19-.07l-.43.14a.28.28,0,0,0-.06-.08.68.68,0,0,0-.29,0h-.18l-.15,0h-.07L319.4,57l0,0a.25.25,0,0,0-.12,0h-.12l-.21.2a.29.29,0,0,1-.07-.18.33.33,0,0,1,0-.17v0l-.07,0-.16,0c-.46.24-.68.42-.67.53l.11.75.13.66,0,.48v1.11l-.05.17v.08a.38.38,0,0,0,.08.23l0,0,0,0,0,.06-.05.19,0,.22v.11a.79.79,0,0,0,.08.26l0,.17,0,0-.11.6L318,63l0,.7v.81a.34.34,0,0,0-.05.14v.21a1,1,0,0,0-.09.5v.13l0,.14-.05.13-.07-.53.08-2.51c0-.65,0-1.18,0-1.59L317.67,60l-.05-1.16a4.24,4.24,0,0,0-.1-.64l-.08-.31-.06-.32V57.5l-.07,0a.58.58,0,0,1-.2-.21.31.31,0,0,1,.12-.09c.1-.06.15-.1.15-.14s-.08-.1-.23-.15a.12.12,0,0,1-.1-.07s0,0,.09-.09l0-.05v0l-.19,0-.49.09h-.12a.55.55,0,0,1-.35-.06.54.54,0,0,0-.35-.09h-.09c-.2,0-.31.07-.3.13v.05h-.12a.37.37,0,0,1-.29-.06.36.36,0,0,0-.31-.09q-.24.07-.24.15v0l.07,0,.06.07.17.21-.18.06-.18,0q-.76.16-.75.48l0,.33,0,.1v.06a.26.26,0,0,0,.14.21l-.06.57v.24l0,.27,0,.13.07.13v.05a.33.33,0,0,1-.08.25.54.54,0,0,1,.05.21l-.05.22a.86.86,0,0,0,0,.22.3.3,0,0,0,.08.18,1.3,1.3,0,0,0-.07.33l0,.32a1.22,1.22,0,0,1-.15.63.5.5,0,0,0,0,.17v.16l0,.13a.5.5,0,0,1,0,.17.63.63,0,0,0-.1.3l0,.32,0,.19,0,.19v.1a.43.43,0,0,1-.05.25v.08l0,0v.08l0,.08a.81.81,0,0,0-.09.44.78.78,0,0,0,0,.21.93.93,0,0,1-.06.41.88.88,0,0,0-.13.47l.06.4.09.4a2,2,0,0,1,.05.43,2,2,0,0,1,0,.35l0,.19,0,.16a.75.75,0,0,0,.08.32.33.33,0,0,1,.08.21v2.18a1.82,1.82,0,0,0,.06.35.4.4,0,0,1,0,.13,1.25,1.25,0,0,1-.09.49.91.91,0,0,0-.07.41.7.7,0,0,0,.08.27.26.26,0,0,1,.07.15.28.28,0,0,1-.05.17l0,0v.06a.48.48,0,0,1,.07.24V73l0,.16,0,.16v.22l.14.61c0,.25.06.45.07.61v.17a4.24,4.24,0,0,0,.1.64L314,76l.06.4v.06a.42.42,0,0,0,0,.15l.07.08,0,.11.06.88,0,.25a1,1,0,0,0,.12.47s0,0,0,0a.2.2,0,0,1,0,.08.55.55,0,0,0-.07.3l0,.32,0,.19.09.35.05.32.08.69a5.28,5.28,0,0,0,.07.7,3.82,3.82,0,0,1,.11.72,3.28,3.28,0,0,1,0,.7,4,4,0,0,0,0,.49,3.93,3.93,0,0,0,.06.48l.05.4v.54l0,.13a.56.56,0,0,1,.11.32l0,.64a3.59,3.59,0,0,0,.07.45,7.11,7.11,0,0,1,.14.72l0,.73h-.06l-.05.11,0,.35a.71.71,0,0,0,.17.32,1,1,0,0,1,.24.71l0,.43a1.31,1.31,0,0,0,0,.35l.11.34,0,.09a1.94,1.94,0,0,1-.09.48l-.05.29v.26a1,1,0,0,1-.13.58v1a.23.23,0,0,1-.06.12.19.19,0,0,0-.07.13.12.12,0,0,0,.09.09s0,0,0,.06a.06.06,0,0,1,0,.05.42.42,0,0,0-.15.33.43.43,0,0,0,.12.23s.06.05.06.08,0,0,0,0a.38.38,0,0,0-.11.28.64.64,0,0,0,.1.27v.1a.26.26,0,0,0-.1.24l0,.12v.11l.11.06h.15l.31,0,.17,0h.1l0,0h.05l.13,0,.13,0,.46-.24.08.06,0,0h0a.53.53,0,0,0,.16,0l.35-.1.05.05a.86.86,0,0,0,.23,0l.16,0,.12,0h.05l0,0h0l0,0h.21l.16-.13a.14.14,0,0,1,.06.11.21.21,0,0,1,0,.11h.05l.13,0c.38-.17.56-.28.56-.35l-.09-.46-.11-.41,0-.29v-.69l0-.1v0a.25.25,0,0,0-.06-.15h0l0,0,0,0,.05-.12,0-.14v-.06a.41.41,0,0,0-.07-.17l0-.1,0,0,.1-.37.1-.36v-.94a.12.12,0,0,0,0-.08v-.14a.43.43,0,0,0,.08-.3v-.09l0-.08,0-.09.05.33-.07,1.56c0,.4,0,.73,0,1l.06.72,0,.71a3.47,3.47,0,0,0,.08.4l.07.19,0,.2v.05l0,0a.3.3,0,0,1,.17.12.19.19,0,0,1-.1,0c-.08,0-.12.08-.12.1s.06.06.18.08.08,0,.08,0,0,0-.07,0l0,0h.16l.4-.07h.1a.54.54,0,0,1,.28,0,.6.6,0,0,0,.29,0h.07c.17,0,.25,0,.25-.09v0h.1a.35.35,0,0,1,.23,0,.38.38,0,0,0,.26,0c.13,0,.2-.07.19-.1v0l-.05,0-.06,0-.13-.12.15,0,.15,0c.41-.08.62-.18.61-.32l0-.19,0-.07v0a.18.18,0,0,0-.12-.12l.05-.35v-.32l0-.08-.06-.08v0a.21.21,0,0,1,.07-.16.33.33,0,0,1,0-.13l0-.14a.29.29,0,0,0,0-.13s0,0,0-.06l0-.23v-.15l0-.24a.56.56,0,0,1,.06-.23.2.2,0,0,0,0-.1v-.09s0,0,0,0l.08-.2.05-.22a1.07,1.07,0,0,0,.06-.4.37.37,0,0,0-.14-.32l0,0v0a.38.38,0,0,0,.08-.27.2.2,0,0,0,0-.11.41.41,0,0,0,0-.11.59.59,0,0,1,0-.17m-5.69,4.69,0-.15-.09-1a4.12,4.12,0,0,1,0-.74l.07-.42,0-.28,0,.89v.1l0,.1a.25.25,0,0,0-.07.14.12.12,0,0,0,.09.1l0,0a.14.14,0,0,1,0,.07.51.51,0,0,0-.11.31.43.43,0,0,0,.1.24.17.17,0,0,1,0,.07s0,0,0,0a.49.49,0,0,0,0,.27.84.84,0,0,0,.08.29v.09Zm0-2.63,0,0,0-.13v0l0,0,.07-.31a1.44,1.44,0,0,1-.08.49m.13-1.18h-.26l.27-.07Zm0-21.06-.1.36a3.1,3.1,0,0,1-.19-.93c0-.2,0-.4,0-.62a2,2,0,0,1,.27.44.88.88,0,0,1,.08.32v.08Zm3.22,24.32,0,0,.08,0,.05,0-.05,0h0Zm.2.32-.09,0s-.06,0-.06,0h0a.26.26,0,0,1,0-.11h.07l.08,0,.11,0Zm.12-.74-.07.05-.05.09,0,.09q-.25-.09-.27-.18v0a1.74,1.74,0,0,0,0-.52l0-.52v-.23l0,0v0S321,92,321,92s-.06,0-.06,0,0,0,.05,0,.18-.12.19-.2l0-.08.09,1.14-.05,0-.07,0,.11.06.08.06v0a.11.11,0,0,0,0,.08.19.19,0,0,0,0,.09l0,.18.11,0,0,0Z" transform="translate(0 0)"/><path class="cls-3" d="M341.89,63.58a.24.24,0,0,0,.08-.17h.09a.61.61,0,0,0,.19,0,1,1,0,0,0,.36-.11l.24,0,.34,0a.15.15,0,0,0,.09-.06.29.29,0,0,1,.17-.13l.22,0a2.1,2.1,0,0,0,.42-.12,2.05,2.05,0,0,1,.42-.15l.42-.12,0,.08,0,0,.13,0,.09,0a.48.48,0,0,0,.2-.15.45.45,0,0,1,.38-.26l.27-.05a.3.3,0,0,0,.18-.07l.2-.13.21-.12a.46.46,0,0,1,.21-.08.54.54,0,0,1,.22,0,.9.9,0,0,0,.35,0l.12,0a1.39,1.39,0,0,0,.33-.65,4.42,4.42,0,0,1,.26-.73l.2-.45.16-.53a4.71,4.71,0,0,0,.17-1.75,3.19,3.19,0,0,0-.14-.71l0,0V57l-.06-.21a2.06,2.06,0,0,0-1-1.17,1.36,1.36,0,0,0-.51-.09h-.47a.73.73,0,0,1-.22-.06l-.23-.06a.66.66,0,0,0-.19,0,.29.29,0,0,0-.23.13l0,0h-.09l-.13,0a.32.32,0,0,0-.13,0l0,0-.05,0h0l0,0a.08.08,0,0,0-.07-.05.05.05,0,0,0-.05,0,.57.57,0,0,1-.21.13l-.18.07a.54.54,0,0,1-.22,0,.71.71,0,0,0-.22-.06l-.19,0h-.22a.25.25,0,0,0-.17.07l-.09.06-.12.07-.09,0a.18.18,0,0,1-.13,0v0l0,0c0,.12-.07.19-.13.2a.29.29,0,0,1-.2-.12l0,0,0,0h-.1l-.15.05-.23.1a1.09,1.09,0,0,1-.31.08.55.55,0,0,1-.18,0h-.07a1.28,1.28,0,0,1-.26.1H341l-.61.06-.31.06-.3.08-.21,0-.4,0H339l-.16,0-.24.07h-.22a.26.26,0,0,0-.19,0,.28.28,0,0,0-.17.07l-.09.06-.09,0-.09,0-.15,0a.25.25,0,0,1-.16,0s0,0-.07,0a.17.17,0,0,0-.12.06l-.11.1h-.1l0,0L336,57l-.52.05-.49.07a1.16,1.16,0,0,1-.6-.08.49.49,0,0,0-.25,0l-.25,0-1.39.1-.64.09-.68.09a2.64,2.64,0,0,1-1-.1l-.28,0h-.25a1,1,0,0,1-.54-.11h-1A.31.31,0,0,1,328,57a.13.13,0,0,0-.13-.06s-.05,0-.08.08,0,.06-.06.06l0,0c-.12-.12-.22-.17-.3-.16a.36.36,0,0,0-.23.13.11.11,0,0,1-.06.06,0,0,0,0,1,0,0,.32.32,0,0,0-.27-.11.49.49,0,0,0-.26.13h0l-.07,0a.26.26,0,0,0-.23-.12l-.09,0-.12,0s0,0,0,.08a1.47,1.47,0,0,0,0,.3l.06.48,0,.06,0,0a.48.48,0,0,1,0,.16v.11l.24.49,0,.08,0,0v0a.18.18,0,0,0,0,.14,2.37,2.37,0,0,1,.07.37l-.05.08a.75.75,0,0,0,0,.22l0,.16.05.13,0,.06v0l0,0,0,0,0,.21.11.2a.1.1,0,0,1-.09,0,.25.25,0,0,1-.12,0l0,.06v.17c.14.38.26.57.34.56l.43-.1.21,0,.21-.08.28,0h.15l.41,0,.09,0,.1,0h.06c.06,0,.1,0,.11-.07h.07l0,0,.13,0,.13,0a.18.18,0,0,0,.09,0,.16.16,0,0,0,.12-.06h.09l0,0,.35.11.35.07h.94s0,0,.07,0h.12a.34.34,0,0,0,.29.08h.19l.09,0-.33.06-.75,0h-.75l-1,0-.71.06-.68,0a2.14,2.14,0,0,0-.4.09l-.18.07-.18,0h-.06l0,0a.7.7,0,0,1-.11.18.29.29,0,0,1-.07-.1c0-.09-.07-.13-.11-.13s0,.07,0,.19,0,.09,0,.09-.05,0-.07-.08l0,0h0l0,.16.08.43a.89.89,0,0,1,0,.43.55.55,0,0,0-.05.36c0,.19.08.29.13.28a.59.59,0,0,1,0,.33.62.62,0,0,0,0,.28c0,.14,0,.21.08.2h0l.05-.11.13-.15.05.16,0,.16c.09.46.21.68.36.67h.09l.09,0,.06,0h0c.05,0,.08,0,.12-.12l.34,0h.35l.08-.06.06,0h0a.23.23,0,0,1,.17.07.21.21,0,0,1,.12,0l.12,0a.32.32,0,0,0,.13,0,.26.26,0,0,0,.15-.07l.19,0,.22,0a.56.56,0,0,1,.38.12.16.16,0,0,0,.1,0l.18,0a.11.11,0,0,1,.1,0,.5.5,0,0,0,.2.09l.21-.05h.1l.11-.06h.06a.25.25,0,0,1,.16,0h0l.05,0h0l.07,0a.64.64,0,0,0,.32,0l.15,0a.43.43,0,0,1,.19,0,.4.4,0,0,0,.26.08h0l.25,0,.24-.07,0,.21a.58.58,0,0,1-.05.14.62.62,0,0,0-.09.28v.27l.05.16.05.15v.11a.43.43,0,0,1,0,.25l0,.16,0,.08a.8.8,0,0,0-.07.47l0,.18a.48.48,0,0,1-.06.28.77.77,0,0,0-.11.42l.07.37.07.34c0,.29.05.52.05.7l0,.17v.13a.64.64,0,0,0,.1.32l0,.16,0,.18,0,1.49,0,.3a1.36,1.36,0,0,0,.06.29.24.24,0,0,1,.05.1.93.93,0,0,1-.11.47,1,1,0,0,0-.05.36.43.43,0,0,0,.09.23.27.27,0,0,1,.08.16.19.19,0,0,1-.05.14l0,0v.06a.44.44,0,0,1,.05.15v.27l0,.14,0,.19.12.56a3.39,3.39,0,0,1,.08.39l0,.3a4.3,4.3,0,0,0,.13.58l.07.37.07.35a.45.45,0,0,0,.08.18l0,.1.05.08.09.83v.22a.68.68,0,0,0,.17.41.14.14,0,0,1,0,.11.84.84,0,0,0-.05.39l.06.18.05.19.09.29.07.31.1.62a5.16,5.16,0,0,0,.1.61,4.22,4.22,0,0,1,.18.79,2.68,2.68,0,0,1,0,.49c0,.11,0,.22,0,.35a2.42,2.42,0,0,0,.12.5l.07.37.06.49a.21.21,0,0,0,0,.1,1,1,0,0,1,.16.28l0,.3a3.14,3.14,0,0,0,.14.66,5.21,5.21,0,0,1,.16.63l.13.64h-.09l0,0,0,.35a.46.46,0,0,0,.19.28.5.5,0,0,1,.1.14l.07.54a2.78,2.78,0,0,1-.06,1.08l0,.29v.27a1.16,1.16,0,0,1-.1.58h0l.05.89v.1a.34.34,0,0,1-.06.12.22.22,0,0,0-.06.12.11.11,0,0,0,.09.09s.06,0,.06.06a.1.1,0,0,1,0,.06.43.43,0,0,0-.13.33.39.39,0,0,0,.13.22.17.17,0,0,1,.07.08s0,0,0,0a.31.31,0,0,0-.09.28.62.62,0,0,0,.11.27v.1a.31.31,0,0,0-.09.25l0,.11,0,.12a.28.28,0,0,0,.11.05h.15l.3,0,.18,0h.1l0,0h.05l.13,0a.19.19,0,0,0,.13,0l.45-.25.08.06h0v0a.35.35,0,0,0,.16,0l.35-.1.05,0a.92.92,0,0,0,.24,0l.15,0,.12,0h.05l0,0h0l0,0h.2l.16-.14a.19.19,0,0,1,.07.11.34.34,0,0,1,0,.1v0h.05l.13,0q.56-.27.54-.36l-.11-.46-.14-.4,0-.3V93l0-.42v-.09l0-.11v0a.27.27,0,0,0-.07-.14h0l0,0,0,0,0-.12,0-.14v-.06a.27.27,0,0,0-.08-.16v-.1l0,0,.07-.38.08-.36v-.94s.05-.06,0-.08l0-.14a.38.38,0,0,0,.06-.3v-.09l0-.08,0-.09.08.33v1.55q0,.6.06,1l.1.71.07.71a1.7,1.7,0,0,0,.11.39l.07.19.06.2v0l.06,0a.43.43,0,0,1,.17.12.29.29,0,0,1-.1.06c-.08,0-.11.07-.11.1s.07,0,.19.07.08,0,.08,0,0,0-.07,0l0,0v0h.15l.4-.08h.1a.59.59,0,0,1,.28,0,.53.53,0,0,0,.29,0h.07c.17,0,.25-.06.25-.09v0h.1a.38.38,0,0,1,.24,0,.39.39,0,0,0,.26,0c.13,0,.19-.07.19-.1v0l-.06,0-.06,0-.14-.12.15,0,.15,0c.41-.09.61-.2.59-.34l0-.19,0-.07v0s0-.09-.12-.12l0-.33a1.57,1.57,0,0,0,.12-.26,3.86,3.86,0,0,0,.16-.77l0-.38v-.32c0-.06,0-.16.09-.31l0-.19.08-.17a1.07,1.07,0,0,0,0-.35.38.38,0,0,0-.16-.31l0,0v0l0-.08,0-.22a.65.65,0,0,0,0-.19l0,0,0-.06a.15.15,0,0,1,0-.13.12.12,0,0,0,.06-.09.27.27,0,0,0-.05-.11.51.51,0,0,1-.12-.31l-.07-.29v-.11a.59.59,0,0,1,0-.19,1.39,1.39,0,0,0,.06-.33V87a.47.47,0,0,0-.06-.19l-.07-.15-.08-.16a.24.24,0,0,1-.05-.1.3.3,0,0,1,.07-.23v0c-.16-.06-.24-.13-.25-.22a.42.42,0,0,1,.15-.31v-.11a2.06,2.06,0,0,0-.07-.34l-.13-.37a1.58,1.58,0,0,1-.07-.34,1,1,0,0,1,0-.39v0l0,0a1.22,1.22,0,0,1-.06-.26v-.16l0-.46,0-.46-.06-.46-.08-.45-.08-.45-.1-.88v-.3l0-.11,0-.13-.1-.35a.81.81,0,0,1,0-.32.74.74,0,0,0,0-.33.79.79,0,0,0-.05-.24l-.08-.1v-.13l-.05-.16,0-.13a.56.56,0,0,1,.06-.31s.06-.07.05-.11a.22.22,0,0,0-.08-.15l-.08-.16a.32.32,0,0,1,0-.14v-.08l-.08-1.58-.06-.76,0-.75a2.33,2.33,0,0,1,.09-.87.68.68,0,0,0,.05-.39v-.37l-.08-2-.08-1-.08-1a5.25,5.25,0,0,1,.17-1.53l0-.41,0-.38a2.35,2.35,0,0,1,.12-.83l0,0,0-1.26,0-.14a.61.61,0,0,1,.07-.17m-5.3,7.51a3.72,3.72,0,0,1,0-.48,3.21,3.21,0,0,1,.26.41s0,.08,0,.12l-.29,0m.26-5.21,0,.63v.72a.16.16,0,0,0-.05.12v.19a.79.79,0,0,0-.09.55l0,.13-.05.12-.05-.49.06-2.22,0-.81.21-.1.24,0v.16l-.13.53ZM337.09,90a1.71,1.71,0,0,0,.27-.09V90Zm.17,1,0,0,.06-.31a1.24,1.24,0,0,1-.06.49l0,0v-.17Zm.13,2.77,0-.15-.14-1a3,3,0,0,1,0-.74l0-.42v-.28l.07.89,0,.1,0,.1a.3.3,0,0,0-.06.14.13.13,0,0,0,.09.09l0,.05a.25.25,0,0,1,0,.07.41.41,0,0,0-.08.31.38.38,0,0,0,.11.24.15.15,0,0,1,0,.06s0,0,0,0a.51.51,0,0,0,0,.27,1.42,1.42,0,0,0,.09.3l0,.08ZM339,87.16a.48.48,0,0,1-.08-.19v0l.05-.22.07-.23a1.47,1.47,0,0,1,.18.57,2.34,2.34,0,0,1,0,.38,1,1,0,0,1-.24-.26m.24-22.36a6.58,6.58,0,0,0,0,.71l0,.06v.05l-.11.44a2.58,2.58,0,0,1,.11-.71V64.11l.18,0Zm1.47,28v0a1.78,1.78,0,0,0,0-.52l-.07-.52v-.23l0,0v0s0-.08-.12-.11-.05,0-.05,0,0,0,0,0a.28.28,0,0,0,.18-.21V91l.16,1.14-.05,0-.07,0,.11.06.09.06h0a.15.15,0,0,0,0,.09.59.59,0,0,0,0,.08l0,.18.11,0,0,0,0,0-.07.06,0,.09,0,.09c-.18,0-.27-.11-.28-.17m.13.37,0,0,.07,0,.06,0-.05,0h-.05Zm.22.31-.1,0s-.05,0-.05,0v0a.58.58,0,0,1,0-.1h.07l.08,0,.11,0Z" transform="translate(0 0)"/><path class="cls-3" d="M373.91,60.18a2.06,2.06,0,0,0,.09-.41l.06-.44.07-.4a2,2,0,0,1,.31-.83,1.93,1.93,0,0,0,.4-.86V57.1a1.94,1.94,0,0,0-.37-.86l-.22-.39-.14-.27L374,55.3a5.75,5.75,0,0,0-.74-1.22,2.83,2.83,0,0,0-2.46-1.28h-.09l0,0-.09,0-.21,0a2.66,2.66,0,0,0-1.85,1.06,6.83,6.83,0,0,0-.41.78l-.19.39-.16.34a1.05,1.05,0,0,1-.19.31l-.15.19-.14.18a1,1,0,0,0-.23.6.21.21,0,0,0,0,.14.06.06,0,0,1,0,.1l-.06.09-.08.11-.09.11a.68.68,0,0,0-.11.2v.16c0,.06-.05.09-.11.12s-.12.09-.11.22a1.11,1.11,0,0,1,0,.35l0,.19-.05.17a.85.85,0,0,1-.2.33,3.35,3.35,0,0,0-.22.34l-.19.34-.08.16-.12.17a1,1,0,0,0-.12.36l0,.22,0,.19a.53.53,0,0,1-.22.34l0,0v.06a.34.34,0,0,1,.08.18c0,.16-.1.31-.34.43,0,0,0,0,0,.05l0,.06a1.36,1.36,0,0,0-.19.42l-.12.46a1.94,1.94,0,0,1-.41.84l-.05,0v.06a1.91,1.91,0,0,1-.21.55l-.13.25-.09.11v0l0,0-.08.09-.06.11,0,.11,0,.16,0,.06-.05.08,0,.06s0,.05-.06.05,0,0,0,0a.44.44,0,0,1,0,.17s0,0,0,0l0,0,0,0s0,.06-.05.17l0,.19,0,.05,0,.06v0l0-.11s0,0,0,0l0,.13v.14s0,.05,0,.05l-.05.09,0,.05,0,0v0l-.14-.18-.13-.15-.14-.18a.85.85,0,0,1-.05-.24l0-.32,0,0,0,0-.11-.24-.08-.21-.14-.18v0h0l-.07-.16-.15-.29-.29-.55a7.81,7.81,0,0,1-.63-1.79,1.68,1.68,0,0,0-.12-.48l-.16-.45a3.08,3.08,0,0,1-.22-.84v-.17l-.51-1.42-.05-.19a1,1,0,0,1,0-.16.22.22,0,0,0,0-.13.25.25,0,0,0-.17-.24c-.06,0-.1-.07-.1-.12v-.06a.78.78,0,0,0,.06-.35.74.74,0,0,0-.28-.52.32.32,0,0,1-.08-.13v-.06a.38.38,0,0,0,0-.24,1.24,1.24,0,0,0-.26-.61.42.42,0,0,1,0-.1v0a.45.45,0,0,0,.07-.3v-.08L359,55l-.07-.16s0-.06-.1-.07l-.16,0-.18,0-.25,0-.21.07h-.12l0,0h-.06l-.16,0a.3.3,0,0,0-.15,0l-.23.2-.27.21-.06,0-.07,0,0,0v0a.5.5,0,0,0-.19,0l-.42.17a.25.25,0,0,0-.1-.08s0,0-.1,0a.34.34,0,0,0-.15,0l-.18,0-.15.07-.07,0h0l0,0-.07-.05-.12,0a.19.19,0,0,0-.09,0l-.2.22a.34.34,0,0,1-.09-.37s0,0-.07,0l-.19,0q-.58.41-.57.63v0l.12.4.16.42.15.37.15.34.19.53.06.29.12.37.15.37V59l.05.16a.66.66,0,0,0,.18.34l0,0,0,.59a.77.77,0,0,0,.22.42l0,.16v.05l.11.67a4.13,4.13,0,0,0,.14.64,5.43,5.43,0,0,0,.27.76l.31.74.07.16a.12.12,0,0,0,0,.1v0l.07.13,0,.11v.13a1.36,1.36,0,0,0,.2.56l0,.15v.16l-.29-.54c-.25-.62-.6-1.53-1-2.74L355,60.09l-.5-1.27a12.29,12.29,0,0,1-.41-1.29l-.15-.34-.15-.35c-.12-.29-.21-.53-.27-.71l0-.07a.1.1,0,0,0-.07-.08.54.54,0,0,1-.23-.18.39.39,0,0,1,.08-.14c.08-.06.12-.11.11-.16s-.08-.13-.22-.15-.13,0-.13-.07,0-.09.08-.15l0-.05v0l-.18,0-.49.12-.22,0a.47.47,0,0,1-.28-.07.48.48,0,0,0-.32-.08h-.09c-.2.07-.3.14-.29.21v0h0a.34.34,0,0,1-.15,0,.32.32,0,0,1-.23-.07.27.27,0,0,0-.25-.11h-.07c-.16.05-.24.11-.23.18v.05l.07.08.1.1.21.25-.18.1-.15.09c-.46.17-.69.39-.67.66v.11l0,.1,0,.08,0,.16v.19a.29.29,0,0,0,.21.28l.12.72.08.32a.89.89,0,0,0,.12.32l.07.15.11.16a.29.29,0,0,1,.07.18.23.23,0,0,1-.05.17.56.56,0,0,1,.15.26l0,.27a.67.67,0,0,0,.22.47,1.62,1.62,0,0,0,.09.4l.12.37a2.57,2.57,0,0,1,.14.64l0,.32.08.18.07.16a.14.14,0,0,1,0,.1.51.51,0,0,1,0,.09V63a.86.86,0,0,0,.05.27l.15.34.11.21.13.18a.76.76,0,0,1,.12.37v.08l0,0,.07,0,0,.1,0,.11v.08a1.67,1.67,0,0,0,.24.66.89.89,0,0,1,.12.4V66a1.42,1.42,0,0,0,.13.53L353,67l.28.41c.19.3.39.66.61,1.1l.15.36.18.34a2.43,2.43,0,0,0,.42.65,4.15,4.15,0,0,1,.28.36l.21.42c.67,1.18,1.31,2.23,1.91,3.14l.21.31.21.31a2.81,2.81,0,0,0,.42.57l0,0,0,.16a.34.34,0,0,1,0,.2.79.79,0,0,0-.06.22v.24l0,.2v.07a.34.34,0,0,0,0,.14l.07.1.07.11v.05a.19.19,0,0,1-.06.17v0c.1,0,.15.07.17.12V77a.5.5,0,0,1-.1.13l0,0,0,0v0s0,.06,0,.08a.32.32,0,0,0-.14.25l.05.21,0,.21,0,.17a2.26,2.26,0,0,1,0,.27v.08l0,.08v.08a.25.25,0,0,0,0,.11l.07.1,0,.11,0,.86,0,.19v.08a.1.1,0,0,0,0,.08.08.08,0,0,1,0,.08.32.32,0,0,1-.14.25s0,0,0,.08.05.21.08.31,0,0,0,.06l0,0a5.16,5.16,0,0,1,.25,1,3.47,3.47,0,0,1,0,.72l0,.07.05.21s0,0,.07.1l.06,0,0,.06,0,.45,0,.11a.28.28,0,0,0,.14.24v0a.09.09,0,0,1,0,.06.23.23,0,0,0-.07.19l0,.11,0,.1.08.16,0,.19.06.34a1,1,0,0,0,.05.2,1.42,1.42,0,0,1-.09.52.34.34,0,0,0-.05.27l0,.26.09,1.45L359,89.3a2.46,2.46,0,0,1-.09,1.08l-.05.29v.26a1.08,1.08,0,0,1-.12.59h0l0,.89v.1a.25.25,0,0,1-.07.12.19.19,0,0,0-.07.12.13.13,0,0,0,.1.1.09.09,0,0,1,.07.06s0,0,0,0a.4.4,0,0,0-.16.33.34.34,0,0,0,.15.22s.06.06.06.08,0,0,0,0a.33.33,0,0,0-.11.28.61.61,0,0,0,.12.28v.1a.27.27,0,0,0-.11.24l0,.11,0,.12a.23.23,0,0,0,.12,0H359l.34,0,.2,0h.11l0,0h.05l.15,0,.14,0,.51-.25.1.06h0v0a.4.4,0,0,0,.17,0l.39-.1.06,0a1.11,1.11,0,0,0,.26,0l.17,0,.14,0H362l0,0h.23l.18-.14a.17.17,0,0,1,.08.11.16.16,0,0,1,0,.1v0h.06l.15,0c.41-.17.62-.29.61-.36l-.11-.46-.14-.4,0-.3V93l0-.41,0-.1.05-.11v0a.21.21,0,0,0-.07-.14h0l0,0,0,0,0-.12,0-.14v-.06a.27.27,0,0,0-.08-.16l0-.1,0,0,.1-.38.1-.36v-.94a.14.14,0,0,0,0-.09v-.13a.4.4,0,0,0,.07-.31v-.08l0-.09.05-.08.06.32,0,1.56c0,.4,0,.73,0,1l.09.71.06.71a2.23,2.23,0,0,0,.1.39l.08.2.06.19v0l.06,0a.36.36,0,0,1,.19.11s-.05,0-.11.07-.13.07-.13.09.08.06.21.08.09,0,.09,0,0,0-.07.06l0,0h.18l.44-.07.12,0a1,1,0,0,1,.32,0,.59.59,0,0,0,.31,0h.09q.28,0,.27-.09v0h.11a.42.42,0,0,1,.26,0,.52.52,0,0,0,.3,0c.14,0,.22-.08.21-.11v0l-.06,0-.06,0-.16-.12.16-.05.17,0c.47-.09.69-.2.68-.33l0-.2,0-.07v0c0-.06-.05-.1-.13-.12l0-.36V93l0-.17,0-.08-.07-.07v0a.17.17,0,0,1,.06-.15.4.4,0,0,1,0-.13l0-.14a.33.33,0,0,0,0-.14.15.15,0,0,0-.07-.11.76.76,0,0,0,.06-.2l0-.2a.9.9,0,0,1,0-.18s0-.09.06-.15a.25.25,0,0,1,0-.07.17.17,0,0,0,0-.1v-.15l0-.07a1.14,1.14,0,0,0,.08-.2h0s0,0,0,0l0,0,0-.12c0-.38,0-.75,0-1.13h0l0-.15s0,0,0-.08a.48.48,0,0,0,.11-.29l-.06-.25v0c0-.11,0-.22,0-.33l-.06-.08a.1.1,0,0,1,0-.08s0-.07.09-.11v0l-.11,0,0-.12v-.1h0l0,0v0l0-.08a.25.25,0,0,0,0-.11l-.11-.21a.78.78,0,0,1,0-.21.31.31,0,0,1,0-.22v0l0,0a.85.85,0,0,1-.05-.24v-.79l-.06-.33a.51.51,0,0,0,0-.2.34.34,0,0,0-.08-.16h0v-.18h0l0,0v0a0,0,0,0,1,0,0v-.07l0-.14,0-.16,0-.18V84a.2.2,0,0,1,0-.11.31.31,0,0,0,0-.19.27.27,0,0,0,0-.14l-.06-.07,0-.08v-.16a.17.17,0,0,1,.08-.17s.06,0,.05-.08,0,0-.06-.08l-.07-.08V81a.61.61,0,0,1,.12-.46.28.28,0,0,0,.07-.22v-.22l0-1.11v-1.1a1.52,1.52,0,0,1,.25-.83l.08-.19,0-.22a.66.66,0,0,1,.22-.42v0l.11-.66,0-.08s0,0,.06-.06.09-.07.09-.08a.1.1,0,0,0-.07-.08s-.07,0-.07,0a.09.09,0,0,1,0-.06c.14-.06.21-.13.2-.2a.33.33,0,0,0-.1-.18s0,0,0,0a0,0,0,0,1,0,0,.19.19,0,0,0,.14-.2.37.37,0,0,0-.08-.21v0s0,0,0,0,.16-.1.17-.18l0-.08v-.08s0,0-.07,0l.11-.19.33-.67.32-.67c.29-.55.51-1,.65-1.36a26.7,26.7,0,0,1,1.35-2.73l.24-.44.08-.2.09-.14c.07-.16.14-.34.2-.52a2.59,2.59,0,0,1,.19-.45L372,66l.08-.14a.37.37,0,0,0,.05-.17.86.86,0,0,1,.06-.38l.08-.19.08-.2a4,4,0,0,0,.34-.83c.07-.23.15-.51.25-.82l.34-.83.07,0,.06-.06,0,0,.08-.17.08-.19a.56.56,0,0,0,0-.28.34.34,0,0,0,0-.16v-.1a2.11,2.11,0,0,1,.17-.74ZM354,61.39a.46.46,0,0,0-.13.36v0c-.28-.63-.56-1.27-.79-1.87l.06-.06.05-.06-.16-.07a.34.34,0,0,1-.13-.1v0c0-.09-.07-.2-.12-.32l-.17-.31-.13-.07-.07-.08,0-.11,0-.11,0-.16v-.16c.3.07.45.18.46.34a5.4,5.4,0,0,0,.26,1l.19.47.16.45.15.42V61l0,.11a.54.54,0,0,0,.2.14c.06,0,.09,0,.09,0a.14.14,0,0,1,0,.06M358.24,68a2,2,0,0,1,.49.32,1.33,1.33,0,0,1,.31.39l.32,1A5.64,5.64,0,0,1,358.24,68m1.94,23V91l.09,0Zm1,2.83-.05-.15-.12-1a2.71,2.71,0,0,1,0-.74l.06-.42V91.4h0l.05.78v.1l0,.11c0,.06-.08.1-.07.14s0,.07.09.09,0,0,0,0a.14.14,0,0,1,0,.07.47.47,0,0,0-.11.31.46.46,0,0,0,.12.24.78.78,0,0,1,0,.07.05.05,0,0,1,0,0,.49.49,0,0,0,0,.27,1.05,1.05,0,0,0,.1.3v.08Zm1.94-6.69a.6.6,0,0,1-.08-.19v0l.05-.22.09-.23a1.32,1.32,0,0,1,.19.57c0,.12,0,.25,0,.38a1.12,1.12,0,0,1-.27-.26m1.74,5.67v0a1.26,1.26,0,0,0,0-.52l-.06-.51v-.24l0,0v0s0-.08-.13-.1l-.06,0,.06,0c.12-.06.19-.12.2-.2l0-.09.14,1.14-.05,0-.09,0,.12.05.1.06v0a.11.11,0,0,0,0,.08s0,0,0,.08l.05.18.12,0,0,0,0,0-.08.06,0,.09-.05.09c-.19,0-.3-.11-.31-.18m.14.38,0,0,.09,0,.06.05-.05,0h-.06Zm.24.31-.11,0s-.06,0-.06,0h0a.58.58,0,0,1,0-.1h.09l.09,0,.11,0Zm1.14-21.7-.16.39-.46,1.33-.16,0,.16-.44a4.88,4.88,0,0,1,.23-.64l.27-.5.24-.5-.12.38" transform="translate(0 0)"/><path class="cls-3" d="M8.44,38.87a17.46,17.46,0,0,0,9.16,2.4,17.22,17.22,0,0,0,9.1-2.4A16.28,16.28,0,0,0,32.9,32a23.47,23.47,0,0,0,2.22-10.53V19.83A23.33,23.33,0,0,0,32.88,9.31a16.37,16.37,0,0,0-6.22-6.9A17.22,17.22,0,0,0,17.55,0,17.26,17.26,0,0,0,8.41,2.41a16.37,16.37,0,0,0-6.19,6.9A23.46,23.46,0,0,0,0,19.83v1.63A23.47,23.47,0,0,0,2.22,32a16.19,16.19,0,0,0,6.22,6.88M9.88,18.35q.46-10.77,7.67-10.76,7.74,0,7.75,12.19v1.85q0,5.79-2,8.94a6.35,6.35,0,0,1-5.67,3.14,6.39,6.39,0,0,1-5.79-3.14c-1.31-2.1-2-5.13-2-9.11Z" transform="translate(0 0)"/><path class="cls-3" d="M47.52,39.6a19.55,19.55,0,0,0,8.34,1.67,19.47,19.47,0,0,0,8.33-1.67,12.28,12.28,0,0,0,5.49-4.92,15.18,15.18,0,0,0,1.93-7.89V.55H61.93V26.79c0,2.44-.51,4.23-1.52,5.35a5.82,5.82,0,0,1-4.55,1.68q-6,0-6.15-6.59V.55H40V26.79a15,15,0,0,0,2,7.87,12.46,12.46,0,0,0,5.55,4.94" transform="translate(0 0)"/><polygon class="cls-3" points="97.13 40.72 97.13 8.03 109.21 8.03 109.21 0.55 75.64 0.55 75.64 8.03 87.45 8.03 87.45 40.72 97.13 40.72"/><path class="cls-3" d="M133.05,38.87a17.44,17.44,0,0,0,9.16,2.4,17.25,17.25,0,0,0,9.1-2.4A16.26,16.26,0,0,0,157.5,32a23.47,23.47,0,0,0,2.22-10.53V19.83a23.33,23.33,0,0,0-2.23-10.52,16.44,16.44,0,0,0-6.22-6.9,18.48,18.48,0,0,0-18.25,0,16.31,16.31,0,0,0-6.19,6.9,23.46,23.46,0,0,0-2.22,10.52v1.63A23.47,23.47,0,0,0,126.83,32a16.19,16.19,0,0,0,6.22,6.88m1.43-20.52q.47-10.77,7.67-10.76,7.75,0,7.75,12.19v1.85c0,3.86-.69,6.84-2,8.94a6.35,6.35,0,0,1-5.66,3.14,6.42,6.42,0,0,1-5.8-3.14c-1.3-2.1-2-5.13-2-9.11Z" transform="translate(0 0)"/><polygon class="cls-3" points="164.74 40.72 174.43 40.72 174.43 24.72 190.04 24.72 190.04 17.27 174.43 17.27 174.43 8.03 191.61 8.03 191.61 0.55 164.74 0.55 164.74 40.72"/><path class="cls-3" d="M201.91,29.24l.39-.08,1-.23.27.2.14.2a2.21,2.21,0,0,0,2.12.78l1.56-.07h.78a3.33,3.33,0,0,0,1-.19l2.73,0,1.18,0,1.3-.06.64-.06.65-.1H216a6.3,6.3,0,0,1,1.18.05l.64-.06V40.72h9.68V29.48h.62l.78,0h1.43a12.74,12.74,0,0,0,1.44.07l1.56-.07.91-.07.9-.08.53,0a9,9,0,0,1,1.17,0h.39l.26-.05.39,0,.39,0a14.08,14.08,0,0,0,2.09,0c.34,0,.69,0,1-.08.53,0,1,0,1.51,0A19.66,19.66,0,0,0,244,32a16.19,16.19,0,0,0,6.22,6.88,17.46,17.46,0,0,0,9.16,2.4,17.25,17.25,0,0,0,9.1-2.4,16.28,16.28,0,0,0,6.2-6.88,20.4,20.4,0,0,0,1.46-4,4.55,4.55,0,0,1,.63-.09,4.08,4.08,0,0,1,.78,0l.26,0h.26a9.49,9.49,0,0,1,1.17-.13h2l1-.05,2.95-.24L288,40.72h10l3.29-14.32,1.05,0,1.17,0c.66,0,1.23-.07,1.73-.13l3.41,14.52h10L322,25.24l1.85-.11c1.12-.05,2.25-.08,3.38-.08.78,0,1.56,0,2.34-.07.5,0,1-.06,1.48-.09V40.72h9.68V24.3l1.06-.05c.87,0,1.6-.09,2.21-.14l1.43-.12,9.51,16.73h9.65V22.64l1-.1c.52,0,1-.08,1.43-.1.69,0,1.34,0,1.95,0,1.31.06,2.35.07,3.13,0l.65,0a17.43,17.43,0,0,0,3.48-.89c.43-.14,1.54-.47,3.34-1l2.19-.62c.86-.25,1.58-.48,2.18-.69,2.91-1,4.34-1.93,4.31-2.74a.88.88,0,0,0-.29-.58l-.13.08.13-.11-.27-.24q-1.62-1.24-6.33-1.52c-1.13,0-2.47-.06-4-.06l-1.95,0h-1.7c-.34,0-.86,0-1.56,0l-.92-.06-1,0c-.78,0-1.44,0-2,0a6.32,6.32,0,0,0-1.55.21,1.18,1.18,0,0,1-.39.05h-.39l-1.17,0h-.07V.55h-9.65v14h-.17l-1.82.05h-1.57l-.52,0q-.64,0-1.17.09l-.77.11h-.1L340.71.55H331V15.64l-1.9.06-2.47,0-2.61.09H324L327.22.55h-9.57l-2.87,15.71-.74,0-1.56,0h-.78l-.65,0h-.11L307.42.55H299.2l-3.63,16.5-3.45.13L289.07.55h-9.6l3.6,17h-.25l-4.16.19-1.83,0a22.15,22.15,0,0,0-2.16-8.44,16.37,16.37,0,0,0-6.22-6.9,18.48,18.48,0,0,0-18.25,0A16.31,16.31,0,0,0,244,9.31a23,23,0,0,0-2.2,9.5c-.92,0-1.83,0-2.71,0h-2.22l-2.08.06a41.34,41.34,0,0,1-4.43,0h-.13l-2.74.08V8h12.08V.55H206V8h11.81V19q-.62,0-1.26,0a12.42,12.42,0,0,0-1.81.22,3.84,3.84,0,0,1-.65.1.78.78,0,0,1-.26,0,10.68,10.68,0,0,0-2.09-.08c-.69,0-1.43.1-2.2.2l-.79,0a8.62,8.62,0,0,0-1.82-.09l-.91.07-.91,0a2.21,2.21,0,0,0-.52.16.29.29,0,0,0-.12.21l0,.42.14.24-.12.11v0l-.26.05-.13.07c-.08,0-.16.12-.25.19a.17.17,0,0,0,.14.17l1.59.59-.52.12-.12,0h-.13a.82.82,0,0,0-.38.23,3,3,0,0,0,.54.46l-.39.09c-.17.1-.25.21-.24.32v.21l.14.17v.07l-.13,0-.13,0-.26,0c-.08.05-.13.1-.12.14v.14l.92.2a4.52,4.52,0,0,1-.9.11H203l-.13.07-.25.19a5.66,5.66,0,0,0,2.37.69l3.64-.23,3.25-.25,2.34-.11,1.3,0,2.31-.08v.63l-5.27.21q-1.17,0-3.12.21l-1.56.14-1.56.1-.39,0-.25.08a4.64,4.64,0,0,1-1,.26.9.9,0,0,1-.4-.12,1.74,1.74,0,0,0-.66-.15,1.61,1.61,0,0,0-.77.28.52.52,0,0,1-.38.12,1.06,1.06,0,0,1-.4-.08l-.26,0h-.13l-.12.22.29.54V27c0,.18-.12.32-.37.4s-.51.24-.5.4v.11a.51.51,0,0,0,.54.32h.26v.14c0,.16-.12.27-.37.33s-.52.21-.51.37a.86.86,0,0,0,.66.25h.13Zm152.85-5.76.16,0v2.09l-1.08-1.88a8.35,8.35,0,0,0,.92-.18M227.5,26.58v-.37a.8.8,0,0,1,.21.05,3.59,3.59,0,0,0,1.44.21h.65Zm31.89,7.13a6.39,6.39,0,0,1-5.79-3.14,9.38,9.38,0,0,1-.85-1.74h2.18a14.53,14.53,0,0,0,1.56-.14,5.84,5.84,0,0,1,1-.12l1.05,0,7.56-.25a11.34,11.34,0,0,1-1.07,2.3,6.37,6.37,0,0,1-5.67,3.14M253.88,20l.52.05v.14l-.52,0v0l-.14-.07.13-.07Zm10.66-.45a2.91,2.91,0,0,1,.39-.05.64.64,0,0,1,.53.15,1,1,0,0,1-.52.16h-.13l-.26,0v-.07l-.13-.07.13,0ZM266,23.41c-1.21.14-2.72.26-4.55.34-1,.05-2,.08-3,.1.69-.14,1.42-.27,2.2-.38.61-.07,1.13-.12,1.56-.14h.39l1.69,0ZM259.33,7.59q7.14,0,7.7,10.31l-8.54.31-6.83.29v-.15q.48-10.77,7.67-10.76m-19.76,13,.13-.08s0,0,.13,0l.13,0,.13.06.13.1-.25.12-.39,0v0l-.14,0Zm.7,1.15h-.65l.25-.35a1.29,1.29,0,0,0,.4.36m-2.66-1.24.27.16-.26.12-.13,0v0Zm-1.39,3.72,3.38-.08.52,0a3.9,3.9,0,0,0,.65,0l1,0h.1c0,.07,0,.15,0,.22l-10.51.24-3.91.12V24.2l2.59,0,2.74.05Zm-2.78-3.67v.21l-.13,0-.52-.08v-.14Zm-1.76,1.23.26,0,2.34,0q-2.21.06-3.78,0l-.12,0,1,0Zm-3.52.06,2.15,0-2.81.1v-.07Zm-11.45.27a16,16,0,0,0-2,.2l-.52.06a2.07,2.07,0,0,1-.39,0,18,18,0,0,0-2.09,0c-.69,0-1.47.09-2.33.17l-.66,0,1.3-.13,1.17-.08,6.58-.3v.07h-1.11m-1.36,4.7.26,0c.66,0,1.4,0,2.21,0v.34l-1.15.08-.38.16-.39.05-.39,0-.39-.09-.66,0-.65,0a3.81,3.81,0,0,1,1.54-.41m-3.24.32.26-.08.13,0,.13.09-.38.09-.27-.06Zm-2.34.07h.91l-.13.11-.25.12-.25.15-.27-.16-.27-.13a.52.52,0,0,1,.26-.08" transform="translate(0 0)"/></g></g></g></g></svg>